M48
; DRILL file {KiCad 9.0.7} date 2026-03-31T19:46:57-0700
; FORMAT={-:-/ absolute / metric / decimal}
; #@! TF.CreationDate,2026-03-31T19:46:57-07:00
; #@! TF.GenerationSoftware,Kicad,Pcbnew,9.0.7
; #@! TF.FileFunction,Plated,1,2,PTH
FMAT,2
METRIC
; #@! TA.AperFunction,Plated,PTH,ComponentDrill
T1C0.800
; #@! TA.AperFunction,Plated,PTH,ComponentDrill
T2C0.900
; #@! TA.AperFunction,Plated,PTH,ComponentDrill
T3C1.000
; #@! TA.AperFunction,Plated,PTH,ComponentDrill
T4C1.100
%
G90
G05
T1
X146.325Y-108.5
X146.325Y-114.5
X146.325Y-120.5
X156.485Y-108.5
X156.485Y-114.5
X156.485Y-120.5
T2
X163.0Y-112.73
X163.0Y-114.0
X163.0Y-115.27
X163.0Y-116.54
X171.5Y-112.73
X171.5Y-114.0
X171.5Y-115.27
X171.5Y-116.54
X180.0Y-112.73
X180.0Y-114.0
X180.0Y-115.27
X180.0Y-116.54
T3
X122.76Y-106.5
X122.76Y-121.75
X125.3Y-106.5
X125.3Y-121.75
X127.84Y-106.5
X127.84Y-121.75
X130.38Y-106.5
X130.38Y-121.75
X132.92Y-106.5
X132.92Y-121.75
X135.46Y-106.5
X135.46Y-121.75
X138.0Y-106.5
X138.0Y-121.75
X144.92Y-91.5
X147.46Y-91.5
X148.0Y-128.42
X148.0Y-130.96
X148.0Y-133.5
X148.0Y-136.04
X148.0Y-138.58
X150.0Y-91.5
X152.54Y-91.5
T4
X125.0Y-133.0
X125.0Y-137.5
X131.5Y-133.0
X131.5Y-137.5
X165.75Y-132.75
X165.75Y-137.25
X172.25Y-132.75
X172.25Y-137.25
M30
