%TF.GenerationSoftware,KiCad,Pcbnew,9.0.7*%
%TF.CreationDate,2026-06-05T16:08:37-07:00*%
%TF.ProjectId,rgb_led_controller,7267625f-6c65-4645-9f63-6f6e74726f6c,rev?*%
%TF.SameCoordinates,Original*%
%TF.FileFunction,Legend,Top*%
%TF.FilePolarity,Positive*%
%FSLAX46Y46*%
G04 Gerber Fmt 4.6, Leading zero omitted, Abs format (unit mm)*
G04 Created by KiCad (PCBNEW 9.0.7) date 2026-06-05 16:08:37*
%MOMM*%
%LPD*%
G01*
G04 APERTURE LIST*
%ADD10C,0.100000*%
%ADD11C,0.150000*%
%ADD12C,0.300000*%
%ADD13C,0.400000*%
%ADD14C,0.200000*%
%ADD15C,0.160000*%
%ADD16C,0.101600*%
%ADD17C,0.120000*%
%ADD18C,0.000000*%
%ADD19C,0.127000*%
%ADD20C,0.254000*%
%ADD21C,0.025400*%
G04 APERTURE END LIST*
D10*
D11*
X177002200Y-166007200D02*
X285002200Y-166007200D01*
X285002200Y-198007200D01*
X177002200Y-198007200D01*
X177002200Y-166007200D01*
D10*
D11*
X10000000Y-10000000D02*
X287002200Y-10000000D01*
X287002200Y-200007200D01*
X10000000Y-200007200D01*
X10000000Y-10000000D01*
D10*
D11*
X12000000Y-12000000D02*
X285002200Y-12000000D01*
X285002200Y-198007200D01*
X12000000Y-198007200D01*
X12000000Y-12000000D01*
D10*
D11*
X60000000Y-12000000D02*
X60000000Y-10000000D01*
D10*
D11*
X110000000Y-12000000D02*
X110000000Y-10000000D01*
D10*
D11*
X160000000Y-12000000D02*
X160000000Y-10000000D01*
D10*
D11*
X210000000Y-12000000D02*
X210000000Y-10000000D01*
D10*
D11*
X260000000Y-12000000D02*
X260000000Y-10000000D01*
D10*
D11*
X36089160Y-11593604D02*
X35346303Y-11593604D01*
X35717731Y-11593604D02*
X35717731Y-10293604D01*
X35717731Y-10293604D02*
X35593922Y-10479319D01*
X35593922Y-10479319D02*
X35470112Y-10603128D01*
X35470112Y-10603128D02*
X35346303Y-10665033D01*
D10*
D11*
X85346303Y-10417414D02*
X85408207Y-10355509D01*
X85408207Y-10355509D02*
X85532017Y-10293604D01*
X85532017Y-10293604D02*
X85841541Y-10293604D01*
X85841541Y-10293604D02*
X85965350Y-10355509D01*
X85965350Y-10355509D02*
X86027255Y-10417414D01*
X86027255Y-10417414D02*
X86089160Y-10541223D01*
X86089160Y-10541223D02*
X86089160Y-10665033D01*
X86089160Y-10665033D02*
X86027255Y-10850747D01*
X86027255Y-10850747D02*
X85284398Y-11593604D01*
X85284398Y-11593604D02*
X86089160Y-11593604D01*
D10*
D11*
X135284398Y-10293604D02*
X136089160Y-10293604D01*
X136089160Y-10293604D02*
X135655826Y-10788842D01*
X135655826Y-10788842D02*
X135841541Y-10788842D01*
X135841541Y-10788842D02*
X135965350Y-10850747D01*
X135965350Y-10850747D02*
X136027255Y-10912652D01*
X136027255Y-10912652D02*
X136089160Y-11036461D01*
X136089160Y-11036461D02*
X136089160Y-11345985D01*
X136089160Y-11345985D02*
X136027255Y-11469795D01*
X136027255Y-11469795D02*
X135965350Y-11531700D01*
X135965350Y-11531700D02*
X135841541Y-11593604D01*
X135841541Y-11593604D02*
X135470112Y-11593604D01*
X135470112Y-11593604D02*
X135346303Y-11531700D01*
X135346303Y-11531700D02*
X135284398Y-11469795D01*
D10*
D11*
X185965350Y-10726938D02*
X185965350Y-11593604D01*
X185655826Y-10231700D02*
X185346303Y-11160271D01*
X185346303Y-11160271D02*
X186151064Y-11160271D01*
D10*
D11*
X236027255Y-10293604D02*
X235408207Y-10293604D01*
X235408207Y-10293604D02*
X235346303Y-10912652D01*
X235346303Y-10912652D02*
X235408207Y-10850747D01*
X235408207Y-10850747D02*
X235532017Y-10788842D01*
X235532017Y-10788842D02*
X235841541Y-10788842D01*
X235841541Y-10788842D02*
X235965350Y-10850747D01*
X235965350Y-10850747D02*
X236027255Y-10912652D01*
X236027255Y-10912652D02*
X236089160Y-11036461D01*
X236089160Y-11036461D02*
X236089160Y-11345985D01*
X236089160Y-11345985D02*
X236027255Y-11469795D01*
X236027255Y-11469795D02*
X235965350Y-11531700D01*
X235965350Y-11531700D02*
X235841541Y-11593604D01*
X235841541Y-11593604D02*
X235532017Y-11593604D01*
X235532017Y-11593604D02*
X235408207Y-11531700D01*
X235408207Y-11531700D02*
X235346303Y-11469795D01*
D10*
D11*
X285965350Y-10293604D02*
X285717731Y-10293604D01*
X285717731Y-10293604D02*
X285593922Y-10355509D01*
X285593922Y-10355509D02*
X285532017Y-10417414D01*
X285532017Y-10417414D02*
X285408207Y-10603128D01*
X285408207Y-10603128D02*
X285346303Y-10850747D01*
X285346303Y-10850747D02*
X285346303Y-11345985D01*
X285346303Y-11345985D02*
X285408207Y-11469795D01*
X285408207Y-11469795D02*
X285470112Y-11531700D01*
X285470112Y-11531700D02*
X285593922Y-11593604D01*
X285593922Y-11593604D02*
X285841541Y-11593604D01*
X285841541Y-11593604D02*
X285965350Y-11531700D01*
X285965350Y-11531700D02*
X286027255Y-11469795D01*
X286027255Y-11469795D02*
X286089160Y-11345985D01*
X286089160Y-11345985D02*
X286089160Y-11036461D01*
X286089160Y-11036461D02*
X286027255Y-10912652D01*
X286027255Y-10912652D02*
X285965350Y-10850747D01*
X285965350Y-10850747D02*
X285841541Y-10788842D01*
X285841541Y-10788842D02*
X285593922Y-10788842D01*
X285593922Y-10788842D02*
X285470112Y-10850747D01*
X285470112Y-10850747D02*
X285408207Y-10912652D01*
X285408207Y-10912652D02*
X285346303Y-11036461D01*
D10*
D11*
X60000000Y-198007200D02*
X60000000Y-200007200D01*
D10*
D11*
X110000000Y-198007200D02*
X110000000Y-200007200D01*
D10*
D11*
X160000000Y-198007200D02*
X160000000Y-200007200D01*
D10*
D11*
X210000000Y-198007200D02*
X210000000Y-200007200D01*
D10*
D11*
X260000000Y-198007200D02*
X260000000Y-200007200D01*
D10*
D11*
X36089160Y-199600804D02*
X35346303Y-199600804D01*
X35717731Y-199600804D02*
X35717731Y-198300804D01*
X35717731Y-198300804D02*
X35593922Y-198486519D01*
X35593922Y-198486519D02*
X35470112Y-198610328D01*
X35470112Y-198610328D02*
X35346303Y-198672233D01*
D10*
D11*
X85346303Y-198424614D02*
X85408207Y-198362709D01*
X85408207Y-198362709D02*
X85532017Y-198300804D01*
X85532017Y-198300804D02*
X85841541Y-198300804D01*
X85841541Y-198300804D02*
X85965350Y-198362709D01*
X85965350Y-198362709D02*
X86027255Y-198424614D01*
X86027255Y-198424614D02*
X86089160Y-198548423D01*
X86089160Y-198548423D02*
X86089160Y-198672233D01*
X86089160Y-198672233D02*
X86027255Y-198857947D01*
X86027255Y-198857947D02*
X85284398Y-199600804D01*
X85284398Y-199600804D02*
X86089160Y-199600804D01*
D10*
D11*
X135284398Y-198300804D02*
X136089160Y-198300804D01*
X136089160Y-198300804D02*
X135655826Y-198796042D01*
X135655826Y-198796042D02*
X135841541Y-198796042D01*
X135841541Y-198796042D02*
X135965350Y-198857947D01*
X135965350Y-198857947D02*
X136027255Y-198919852D01*
X136027255Y-198919852D02*
X136089160Y-199043661D01*
X136089160Y-199043661D02*
X136089160Y-199353185D01*
X136089160Y-199353185D02*
X136027255Y-199476995D01*
X136027255Y-199476995D02*
X135965350Y-199538900D01*
X135965350Y-199538900D02*
X135841541Y-199600804D01*
X135841541Y-199600804D02*
X135470112Y-199600804D01*
X135470112Y-199600804D02*
X135346303Y-199538900D01*
X135346303Y-199538900D02*
X135284398Y-199476995D01*
D10*
D11*
X185965350Y-198734138D02*
X185965350Y-199600804D01*
X185655826Y-198238900D02*
X185346303Y-199167471D01*
X185346303Y-199167471D02*
X186151064Y-199167471D01*
D10*
D11*
X236027255Y-198300804D02*
X235408207Y-198300804D01*
X235408207Y-198300804D02*
X235346303Y-198919852D01*
X235346303Y-198919852D02*
X235408207Y-198857947D01*
X235408207Y-198857947D02*
X235532017Y-198796042D01*
X235532017Y-198796042D02*
X235841541Y-198796042D01*
X235841541Y-198796042D02*
X235965350Y-198857947D01*
X235965350Y-198857947D02*
X236027255Y-198919852D01*
X236027255Y-198919852D02*
X236089160Y-199043661D01*
X236089160Y-199043661D02*
X236089160Y-199353185D01*
X236089160Y-199353185D02*
X236027255Y-199476995D01*
X236027255Y-199476995D02*
X235965350Y-199538900D01*
X235965350Y-199538900D02*
X235841541Y-199600804D01*
X235841541Y-199600804D02*
X235532017Y-199600804D01*
X235532017Y-199600804D02*
X235408207Y-199538900D01*
X235408207Y-199538900D02*
X235346303Y-199476995D01*
D10*
D11*
X285965350Y-198300804D02*
X285717731Y-198300804D01*
X285717731Y-198300804D02*
X285593922Y-198362709D01*
X285593922Y-198362709D02*
X285532017Y-198424614D01*
X285532017Y-198424614D02*
X285408207Y-198610328D01*
X285408207Y-198610328D02*
X285346303Y-198857947D01*
X285346303Y-198857947D02*
X285346303Y-199353185D01*
X285346303Y-199353185D02*
X285408207Y-199476995D01*
X285408207Y-199476995D02*
X285470112Y-199538900D01*
X285470112Y-199538900D02*
X285593922Y-199600804D01*
X285593922Y-199600804D02*
X285841541Y-199600804D01*
X285841541Y-199600804D02*
X285965350Y-199538900D01*
X285965350Y-199538900D02*
X286027255Y-199476995D01*
X286027255Y-199476995D02*
X286089160Y-199353185D01*
X286089160Y-199353185D02*
X286089160Y-199043661D01*
X286089160Y-199043661D02*
X286027255Y-198919852D01*
X286027255Y-198919852D02*
X285965350Y-198857947D01*
X285965350Y-198857947D02*
X285841541Y-198796042D01*
X285841541Y-198796042D02*
X285593922Y-198796042D01*
X285593922Y-198796042D02*
X285470112Y-198857947D01*
X285470112Y-198857947D02*
X285408207Y-198919852D01*
X285408207Y-198919852D02*
X285346303Y-199043661D01*
D10*
D11*
X10000000Y-60000000D02*
X12000000Y-60000000D01*
D10*
D11*
X10000000Y-110000000D02*
X12000000Y-110000000D01*
D10*
D11*
X10000000Y-160000000D02*
X12000000Y-160000000D01*
D10*
D11*
X10690476Y-35222176D02*
X11309523Y-35222176D01*
X10566666Y-35593604D02*
X10999999Y-34293604D01*
X10999999Y-34293604D02*
X11433333Y-35593604D01*
D10*
D11*
X11092857Y-84912652D02*
X11278571Y-84974557D01*
X11278571Y-84974557D02*
X11340476Y-85036461D01*
X11340476Y-85036461D02*
X11402380Y-85160271D01*
X11402380Y-85160271D02*
X11402380Y-85345985D01*
X11402380Y-85345985D02*
X11340476Y-85469795D01*
X11340476Y-85469795D02*
X11278571Y-85531700D01*
X11278571Y-85531700D02*
X11154761Y-85593604D01*
X11154761Y-85593604D02*
X10659523Y-85593604D01*
X10659523Y-85593604D02*
X10659523Y-84293604D01*
X10659523Y-84293604D02*
X11092857Y-84293604D01*
X11092857Y-84293604D02*
X11216666Y-84355509D01*
X11216666Y-84355509D02*
X11278571Y-84417414D01*
X11278571Y-84417414D02*
X11340476Y-84541223D01*
X11340476Y-84541223D02*
X11340476Y-84665033D01*
X11340476Y-84665033D02*
X11278571Y-84788842D01*
X11278571Y-84788842D02*
X11216666Y-84850747D01*
X11216666Y-84850747D02*
X11092857Y-84912652D01*
X11092857Y-84912652D02*
X10659523Y-84912652D01*
D10*
D11*
X11402380Y-135469795D02*
X11340476Y-135531700D01*
X11340476Y-135531700D02*
X11154761Y-135593604D01*
X11154761Y-135593604D02*
X11030952Y-135593604D01*
X11030952Y-135593604D02*
X10845238Y-135531700D01*
X10845238Y-135531700D02*
X10721428Y-135407890D01*
X10721428Y-135407890D02*
X10659523Y-135284080D01*
X10659523Y-135284080D02*
X10597619Y-135036461D01*
X10597619Y-135036461D02*
X10597619Y-134850747D01*
X10597619Y-134850747D02*
X10659523Y-134603128D01*
X10659523Y-134603128D02*
X10721428Y-134479319D01*
X10721428Y-134479319D02*
X10845238Y-134355509D01*
X10845238Y-134355509D02*
X11030952Y-134293604D01*
X11030952Y-134293604D02*
X11154761Y-134293604D01*
X11154761Y-134293604D02*
X11340476Y-134355509D01*
X11340476Y-134355509D02*
X11402380Y-134417414D01*
D10*
D11*
X10659523Y-185593604D02*
X10659523Y-184293604D01*
X10659523Y-184293604D02*
X10969047Y-184293604D01*
X10969047Y-184293604D02*
X11154761Y-184355509D01*
X11154761Y-184355509D02*
X11278571Y-184479319D01*
X11278571Y-184479319D02*
X11340476Y-184603128D01*
X11340476Y-184603128D02*
X11402380Y-184850747D01*
X11402380Y-184850747D02*
X11402380Y-185036461D01*
X11402380Y-185036461D02*
X11340476Y-185284080D01*
X11340476Y-185284080D02*
X11278571Y-185407890D01*
X11278571Y-185407890D02*
X11154761Y-185531700D01*
X11154761Y-185531700D02*
X10969047Y-185593604D01*
X10969047Y-185593604D02*
X10659523Y-185593604D01*
D10*
D11*
X287002200Y-60000000D02*
X285002200Y-60000000D01*
D10*
D11*
X287002200Y-110000000D02*
X285002200Y-110000000D01*
D10*
D11*
X287002200Y-160000000D02*
X285002200Y-160000000D01*
D10*
D11*
X285692676Y-35222176D02*
X286311723Y-35222176D01*
X285568866Y-35593604D02*
X286002199Y-34293604D01*
X286002199Y-34293604D02*
X286435533Y-35593604D01*
D10*
D11*
X286095057Y-84912652D02*
X286280771Y-84974557D01*
X286280771Y-84974557D02*
X286342676Y-85036461D01*
X286342676Y-85036461D02*
X286404580Y-85160271D01*
X286404580Y-85160271D02*
X286404580Y-85345985D01*
X286404580Y-85345985D02*
X286342676Y-85469795D01*
X286342676Y-85469795D02*
X286280771Y-85531700D01*
X286280771Y-85531700D02*
X286156961Y-85593604D01*
X286156961Y-85593604D02*
X285661723Y-85593604D01*
X285661723Y-85593604D02*
X285661723Y-84293604D01*
X285661723Y-84293604D02*
X286095057Y-84293604D01*
X286095057Y-84293604D02*
X286218866Y-84355509D01*
X286218866Y-84355509D02*
X286280771Y-84417414D01*
X286280771Y-84417414D02*
X286342676Y-84541223D01*
X286342676Y-84541223D02*
X286342676Y-84665033D01*
X286342676Y-84665033D02*
X286280771Y-84788842D01*
X286280771Y-84788842D02*
X286218866Y-84850747D01*
X286218866Y-84850747D02*
X286095057Y-84912652D01*
X286095057Y-84912652D02*
X285661723Y-84912652D01*
D10*
D11*
X286404580Y-135469795D02*
X286342676Y-135531700D01*
X286342676Y-135531700D02*
X286156961Y-135593604D01*
X286156961Y-135593604D02*
X286033152Y-135593604D01*
X286033152Y-135593604D02*
X285847438Y-135531700D01*
X285847438Y-135531700D02*
X285723628Y-135407890D01*
X285723628Y-135407890D02*
X285661723Y-135284080D01*
X285661723Y-135284080D02*
X285599819Y-135036461D01*
X285599819Y-135036461D02*
X285599819Y-134850747D01*
X285599819Y-134850747D02*
X285661723Y-134603128D01*
X285661723Y-134603128D02*
X285723628Y-134479319D01*
X285723628Y-134479319D02*
X285847438Y-134355509D01*
X285847438Y-134355509D02*
X286033152Y-134293604D01*
X286033152Y-134293604D02*
X286156961Y-134293604D01*
X286156961Y-134293604D02*
X286342676Y-134355509D01*
X286342676Y-134355509D02*
X286404580Y-134417414D01*
D10*
D11*
X285661723Y-185593604D02*
X285661723Y-184293604D01*
X285661723Y-184293604D02*
X285971247Y-184293604D01*
X285971247Y-184293604D02*
X286156961Y-184355509D01*
X286156961Y-184355509D02*
X286280771Y-184479319D01*
X286280771Y-184479319D02*
X286342676Y-184603128D01*
X286342676Y-184603128D02*
X286404580Y-184850747D01*
X286404580Y-184850747D02*
X286404580Y-185036461D01*
X286404580Y-185036461D02*
X286342676Y-185284080D01*
X286342676Y-185284080D02*
X286280771Y-185407890D01*
X286280771Y-185407890D02*
X286156961Y-185531700D01*
X286156961Y-185531700D02*
X285971247Y-185593604D01*
X285971247Y-185593604D02*
X285661723Y-185593604D01*
D10*
D11*
X200458026Y-193793328D02*
X200458026Y-192293328D01*
X200458026Y-192293328D02*
X200815169Y-192293328D01*
X200815169Y-192293328D02*
X201029455Y-192364757D01*
X201029455Y-192364757D02*
X201172312Y-192507614D01*
X201172312Y-192507614D02*
X201243741Y-192650471D01*
X201243741Y-192650471D02*
X201315169Y-192936185D01*
X201315169Y-192936185D02*
X201315169Y-193150471D01*
X201315169Y-193150471D02*
X201243741Y-193436185D01*
X201243741Y-193436185D02*
X201172312Y-193579042D01*
X201172312Y-193579042D02*
X201029455Y-193721900D01*
X201029455Y-193721900D02*
X200815169Y-193793328D01*
X200815169Y-193793328D02*
X200458026Y-193793328D01*
X202600884Y-193793328D02*
X202600884Y-193007614D01*
X202600884Y-193007614D02*
X202529455Y-192864757D01*
X202529455Y-192864757D02*
X202386598Y-192793328D01*
X202386598Y-192793328D02*
X202100884Y-192793328D01*
X202100884Y-192793328D02*
X201958026Y-192864757D01*
X202600884Y-193721900D02*
X202458026Y-193793328D01*
X202458026Y-193793328D02*
X202100884Y-193793328D01*
X202100884Y-193793328D02*
X201958026Y-193721900D01*
X201958026Y-193721900D02*
X201886598Y-193579042D01*
X201886598Y-193579042D02*
X201886598Y-193436185D01*
X201886598Y-193436185D02*
X201958026Y-193293328D01*
X201958026Y-193293328D02*
X202100884Y-193221900D01*
X202100884Y-193221900D02*
X202458026Y-193221900D01*
X202458026Y-193221900D02*
X202600884Y-193150471D01*
X203100884Y-192793328D02*
X203672312Y-192793328D01*
X203315169Y-192293328D02*
X203315169Y-193579042D01*
X203315169Y-193579042D02*
X203386598Y-193721900D01*
X203386598Y-193721900D02*
X203529455Y-193793328D01*
X203529455Y-193793328D02*
X203672312Y-193793328D01*
X204743741Y-193721900D02*
X204600884Y-193793328D01*
X204600884Y-193793328D02*
X204315170Y-193793328D01*
X204315170Y-193793328D02*
X204172312Y-193721900D01*
X204172312Y-193721900D02*
X204100884Y-193579042D01*
X204100884Y-193579042D02*
X204100884Y-193007614D01*
X204100884Y-193007614D02*
X204172312Y-192864757D01*
X204172312Y-192864757D02*
X204315170Y-192793328D01*
X204315170Y-192793328D02*
X204600884Y-192793328D01*
X204600884Y-192793328D02*
X204743741Y-192864757D01*
X204743741Y-192864757D02*
X204815170Y-193007614D01*
X204815170Y-193007614D02*
X204815170Y-193150471D01*
X204815170Y-193150471D02*
X204100884Y-193293328D01*
X205458026Y-193650471D02*
X205529455Y-193721900D01*
X205529455Y-193721900D02*
X205458026Y-193793328D01*
X205458026Y-193793328D02*
X205386598Y-193721900D01*
X205386598Y-193721900D02*
X205458026Y-193650471D01*
X205458026Y-193650471D02*
X205458026Y-193793328D01*
X205458026Y-192864757D02*
X205529455Y-192936185D01*
X205529455Y-192936185D02*
X205458026Y-193007614D01*
X205458026Y-193007614D02*
X205386598Y-192936185D01*
X205386598Y-192936185D02*
X205458026Y-192864757D01*
X205458026Y-192864757D02*
X205458026Y-193007614D01*
D10*
D11*
X177002200Y-194507200D02*
X285002200Y-194507200D01*
D10*
D11*
X178458026Y-196593328D02*
X178458026Y-195093328D01*
X179315169Y-196593328D02*
X178672312Y-195736185D01*
X179315169Y-195093328D02*
X178458026Y-195950471D01*
X179958026Y-196593328D02*
X179958026Y-195593328D01*
X179958026Y-195093328D02*
X179886598Y-195164757D01*
X179886598Y-195164757D02*
X179958026Y-195236185D01*
X179958026Y-195236185D02*
X180029455Y-195164757D01*
X180029455Y-195164757D02*
X179958026Y-195093328D01*
X179958026Y-195093328D02*
X179958026Y-195236185D01*
X181529455Y-196450471D02*
X181458027Y-196521900D01*
X181458027Y-196521900D02*
X181243741Y-196593328D01*
X181243741Y-196593328D02*
X181100884Y-196593328D01*
X181100884Y-196593328D02*
X180886598Y-196521900D01*
X180886598Y-196521900D02*
X180743741Y-196379042D01*
X180743741Y-196379042D02*
X180672312Y-196236185D01*
X180672312Y-196236185D02*
X180600884Y-195950471D01*
X180600884Y-195950471D02*
X180600884Y-195736185D01*
X180600884Y-195736185D02*
X180672312Y-195450471D01*
X180672312Y-195450471D02*
X180743741Y-195307614D01*
X180743741Y-195307614D02*
X180886598Y-195164757D01*
X180886598Y-195164757D02*
X181100884Y-195093328D01*
X181100884Y-195093328D02*
X181243741Y-195093328D01*
X181243741Y-195093328D02*
X181458027Y-195164757D01*
X181458027Y-195164757D02*
X181529455Y-195236185D01*
X182815170Y-196593328D02*
X182815170Y-195807614D01*
X182815170Y-195807614D02*
X182743741Y-195664757D01*
X182743741Y-195664757D02*
X182600884Y-195593328D01*
X182600884Y-195593328D02*
X182315170Y-195593328D01*
X182315170Y-195593328D02*
X182172312Y-195664757D01*
X182815170Y-196521900D02*
X182672312Y-196593328D01*
X182672312Y-196593328D02*
X182315170Y-196593328D01*
X182315170Y-196593328D02*
X182172312Y-196521900D01*
X182172312Y-196521900D02*
X182100884Y-196379042D01*
X182100884Y-196379042D02*
X182100884Y-196236185D01*
X182100884Y-196236185D02*
X182172312Y-196093328D01*
X182172312Y-196093328D02*
X182315170Y-196021900D01*
X182315170Y-196021900D02*
X182672312Y-196021900D01*
X182672312Y-196021900D02*
X182815170Y-195950471D01*
X184172313Y-196593328D02*
X184172313Y-195093328D01*
X184172313Y-196521900D02*
X184029455Y-196593328D01*
X184029455Y-196593328D02*
X183743741Y-196593328D01*
X183743741Y-196593328D02*
X183600884Y-196521900D01*
X183600884Y-196521900D02*
X183529455Y-196450471D01*
X183529455Y-196450471D02*
X183458027Y-196307614D01*
X183458027Y-196307614D02*
X183458027Y-195879042D01*
X183458027Y-195879042D02*
X183529455Y-195736185D01*
X183529455Y-195736185D02*
X183600884Y-195664757D01*
X183600884Y-195664757D02*
X183743741Y-195593328D01*
X183743741Y-195593328D02*
X184029455Y-195593328D01*
X184029455Y-195593328D02*
X184172313Y-195664757D01*
X186029455Y-195807614D02*
X186529455Y-195807614D01*
X186743741Y-196593328D02*
X186029455Y-196593328D01*
X186029455Y-196593328D02*
X186029455Y-195093328D01*
X186029455Y-195093328D02*
X186743741Y-195093328D01*
X187386598Y-196450471D02*
X187458027Y-196521900D01*
X187458027Y-196521900D02*
X187386598Y-196593328D01*
X187386598Y-196593328D02*
X187315170Y-196521900D01*
X187315170Y-196521900D02*
X187386598Y-196450471D01*
X187386598Y-196450471D02*
X187386598Y-196593328D01*
X188100884Y-196593328D02*
X188100884Y-195093328D01*
X188100884Y-195093328D02*
X188458027Y-195093328D01*
X188458027Y-195093328D02*
X188672313Y-195164757D01*
X188672313Y-195164757D02*
X188815170Y-195307614D01*
X188815170Y-195307614D02*
X188886599Y-195450471D01*
X188886599Y-195450471D02*
X188958027Y-195736185D01*
X188958027Y-195736185D02*
X188958027Y-195950471D01*
X188958027Y-195950471D02*
X188886599Y-196236185D01*
X188886599Y-196236185D02*
X188815170Y-196379042D01*
X188815170Y-196379042D02*
X188672313Y-196521900D01*
X188672313Y-196521900D02*
X188458027Y-196593328D01*
X188458027Y-196593328D02*
X188100884Y-196593328D01*
X189600884Y-196450471D02*
X189672313Y-196521900D01*
X189672313Y-196521900D02*
X189600884Y-196593328D01*
X189600884Y-196593328D02*
X189529456Y-196521900D01*
X189529456Y-196521900D02*
X189600884Y-196450471D01*
X189600884Y-196450471D02*
X189600884Y-196593328D01*
X190243742Y-196164757D02*
X190958028Y-196164757D01*
X190100885Y-196593328D02*
X190600885Y-195093328D01*
X190600885Y-195093328D02*
X191100885Y-196593328D01*
X191600884Y-196450471D02*
X191672313Y-196521900D01*
X191672313Y-196521900D02*
X191600884Y-196593328D01*
X191600884Y-196593328D02*
X191529456Y-196521900D01*
X191529456Y-196521900D02*
X191600884Y-196450471D01*
X191600884Y-196450471D02*
X191600884Y-196593328D01*
X193529456Y-196593328D02*
X193815170Y-196593328D01*
X193815170Y-196593328D02*
X193958027Y-196521900D01*
X193958027Y-196521900D02*
X194029456Y-196450471D01*
X194029456Y-196450471D02*
X194172313Y-196236185D01*
X194172313Y-196236185D02*
X194243742Y-195950471D01*
X194243742Y-195950471D02*
X194243742Y-195379042D01*
X194243742Y-195379042D02*
X194172313Y-195236185D01*
X194172313Y-195236185D02*
X194100885Y-195164757D01*
X194100885Y-195164757D02*
X193958027Y-195093328D01*
X193958027Y-195093328D02*
X193672313Y-195093328D01*
X193672313Y-195093328D02*
X193529456Y-195164757D01*
X193529456Y-195164757D02*
X193458027Y-195236185D01*
X193458027Y-195236185D02*
X193386599Y-195379042D01*
X193386599Y-195379042D02*
X193386599Y-195736185D01*
X193386599Y-195736185D02*
X193458027Y-195879042D01*
X193458027Y-195879042D02*
X193529456Y-195950471D01*
X193529456Y-195950471D02*
X193672313Y-196021900D01*
X193672313Y-196021900D02*
X193958027Y-196021900D01*
X193958027Y-196021900D02*
X194100885Y-195950471D01*
X194100885Y-195950471D02*
X194172313Y-195879042D01*
X194172313Y-195879042D02*
X194243742Y-195736185D01*
X194886598Y-196450471D02*
X194958027Y-196521900D01*
X194958027Y-196521900D02*
X194886598Y-196593328D01*
X194886598Y-196593328D02*
X194815170Y-196521900D01*
X194815170Y-196521900D02*
X194886598Y-196450471D01*
X194886598Y-196450471D02*
X194886598Y-196593328D01*
X195886599Y-195093328D02*
X196029456Y-195093328D01*
X196029456Y-195093328D02*
X196172313Y-195164757D01*
X196172313Y-195164757D02*
X196243742Y-195236185D01*
X196243742Y-195236185D02*
X196315170Y-195379042D01*
X196315170Y-195379042D02*
X196386599Y-195664757D01*
X196386599Y-195664757D02*
X196386599Y-196021900D01*
X196386599Y-196021900D02*
X196315170Y-196307614D01*
X196315170Y-196307614D02*
X196243742Y-196450471D01*
X196243742Y-196450471D02*
X196172313Y-196521900D01*
X196172313Y-196521900D02*
X196029456Y-196593328D01*
X196029456Y-196593328D02*
X195886599Y-196593328D01*
X195886599Y-196593328D02*
X195743742Y-196521900D01*
X195743742Y-196521900D02*
X195672313Y-196450471D01*
X195672313Y-196450471D02*
X195600884Y-196307614D01*
X195600884Y-196307614D02*
X195529456Y-196021900D01*
X195529456Y-196021900D02*
X195529456Y-195664757D01*
X195529456Y-195664757D02*
X195600884Y-195379042D01*
X195600884Y-195379042D02*
X195672313Y-195236185D01*
X195672313Y-195236185D02*
X195743742Y-195164757D01*
X195743742Y-195164757D02*
X195886599Y-195093328D01*
X197029455Y-196450471D02*
X197100884Y-196521900D01*
X197100884Y-196521900D02*
X197029455Y-196593328D01*
X197029455Y-196593328D02*
X196958027Y-196521900D01*
X196958027Y-196521900D02*
X197029455Y-196450471D01*
X197029455Y-196450471D02*
X197029455Y-196593328D01*
X197600884Y-195093328D02*
X198600884Y-195093328D01*
X198600884Y-195093328D02*
X197958027Y-196593328D01*
D10*
D11*
X177002200Y-191507200D02*
X285002200Y-191507200D01*
D10*
D12*
X264413853Y-193785528D02*
X263913853Y-193071242D01*
X263556710Y-193785528D02*
X263556710Y-192285528D01*
X263556710Y-192285528D02*
X264128139Y-192285528D01*
X264128139Y-192285528D02*
X264270996Y-192356957D01*
X264270996Y-192356957D02*
X264342425Y-192428385D01*
X264342425Y-192428385D02*
X264413853Y-192571242D01*
X264413853Y-192571242D02*
X264413853Y-192785528D01*
X264413853Y-192785528D02*
X264342425Y-192928385D01*
X264342425Y-192928385D02*
X264270996Y-192999814D01*
X264270996Y-192999814D02*
X264128139Y-193071242D01*
X264128139Y-193071242D02*
X263556710Y-193071242D01*
X265628139Y-193714100D02*
X265485282Y-193785528D01*
X265485282Y-193785528D02*
X265199568Y-193785528D01*
X265199568Y-193785528D02*
X265056710Y-193714100D01*
X265056710Y-193714100D02*
X264985282Y-193571242D01*
X264985282Y-193571242D02*
X264985282Y-192999814D01*
X264985282Y-192999814D02*
X265056710Y-192856957D01*
X265056710Y-192856957D02*
X265199568Y-192785528D01*
X265199568Y-192785528D02*
X265485282Y-192785528D01*
X265485282Y-192785528D02*
X265628139Y-192856957D01*
X265628139Y-192856957D02*
X265699568Y-192999814D01*
X265699568Y-192999814D02*
X265699568Y-193142671D01*
X265699568Y-193142671D02*
X264985282Y-193285528D01*
X266199567Y-192785528D02*
X266556710Y-193785528D01*
X266556710Y-193785528D02*
X266913853Y-192785528D01*
X267485281Y-193642671D02*
X267556710Y-193714100D01*
X267556710Y-193714100D02*
X267485281Y-193785528D01*
X267485281Y-193785528D02*
X267413853Y-193714100D01*
X267413853Y-193714100D02*
X267485281Y-193642671D01*
X267485281Y-193642671D02*
X267485281Y-193785528D01*
X267485281Y-192856957D02*
X267556710Y-192928385D01*
X267556710Y-192928385D02*
X267485281Y-192999814D01*
X267485281Y-192999814D02*
X267413853Y-192928385D01*
X267413853Y-192928385D02*
X267485281Y-192856957D01*
X267485281Y-192856957D02*
X267485281Y-192999814D01*
D10*
D11*
X178386598Y-193721900D02*
X178600884Y-193793328D01*
X178600884Y-193793328D02*
X178958026Y-193793328D01*
X178958026Y-193793328D02*
X179100884Y-193721900D01*
X179100884Y-193721900D02*
X179172312Y-193650471D01*
X179172312Y-193650471D02*
X179243741Y-193507614D01*
X179243741Y-193507614D02*
X179243741Y-193364757D01*
X179243741Y-193364757D02*
X179172312Y-193221900D01*
X179172312Y-193221900D02*
X179100884Y-193150471D01*
X179100884Y-193150471D02*
X178958026Y-193079042D01*
X178958026Y-193079042D02*
X178672312Y-193007614D01*
X178672312Y-193007614D02*
X178529455Y-192936185D01*
X178529455Y-192936185D02*
X178458026Y-192864757D01*
X178458026Y-192864757D02*
X178386598Y-192721900D01*
X178386598Y-192721900D02*
X178386598Y-192579042D01*
X178386598Y-192579042D02*
X178458026Y-192436185D01*
X178458026Y-192436185D02*
X178529455Y-192364757D01*
X178529455Y-192364757D02*
X178672312Y-192293328D01*
X178672312Y-192293328D02*
X179029455Y-192293328D01*
X179029455Y-192293328D02*
X179243741Y-192364757D01*
X179886597Y-193793328D02*
X179886597Y-192793328D01*
X179886597Y-192293328D02*
X179815169Y-192364757D01*
X179815169Y-192364757D02*
X179886597Y-192436185D01*
X179886597Y-192436185D02*
X179958026Y-192364757D01*
X179958026Y-192364757D02*
X179886597Y-192293328D01*
X179886597Y-192293328D02*
X179886597Y-192436185D01*
X180458026Y-192793328D02*
X181243741Y-192793328D01*
X181243741Y-192793328D02*
X180458026Y-193793328D01*
X180458026Y-193793328D02*
X181243741Y-193793328D01*
X182386598Y-193721900D02*
X182243741Y-193793328D01*
X182243741Y-193793328D02*
X181958027Y-193793328D01*
X181958027Y-193793328D02*
X181815169Y-193721900D01*
X181815169Y-193721900D02*
X181743741Y-193579042D01*
X181743741Y-193579042D02*
X181743741Y-193007614D01*
X181743741Y-193007614D02*
X181815169Y-192864757D01*
X181815169Y-192864757D02*
X181958027Y-192793328D01*
X181958027Y-192793328D02*
X182243741Y-192793328D01*
X182243741Y-192793328D02*
X182386598Y-192864757D01*
X182386598Y-192864757D02*
X182458027Y-193007614D01*
X182458027Y-193007614D02*
X182458027Y-193150471D01*
X182458027Y-193150471D02*
X181743741Y-193293328D01*
X183100883Y-193650471D02*
X183172312Y-193721900D01*
X183172312Y-193721900D02*
X183100883Y-193793328D01*
X183100883Y-193793328D02*
X183029455Y-193721900D01*
X183029455Y-193721900D02*
X183100883Y-193650471D01*
X183100883Y-193650471D02*
X183100883Y-193793328D01*
X183100883Y-192864757D02*
X183172312Y-192936185D01*
X183172312Y-192936185D02*
X183100883Y-193007614D01*
X183100883Y-193007614D02*
X183029455Y-192936185D01*
X183029455Y-192936185D02*
X183100883Y-192864757D01*
X183100883Y-192864757D02*
X183100883Y-193007614D01*
X184886598Y-193364757D02*
X185600884Y-193364757D01*
X184743741Y-193793328D02*
X185243741Y-192293328D01*
X185243741Y-192293328D02*
X185743741Y-193793328D01*
X186886598Y-192793328D02*
X186886598Y-193793328D01*
X186529455Y-192221900D02*
X186172312Y-193293328D01*
X186172312Y-193293328D02*
X187100883Y-193293328D01*
D10*
D11*
X263458026Y-196593328D02*
X263458026Y-195093328D01*
X264815170Y-196593328D02*
X264815170Y-195093328D01*
X264815170Y-196521900D02*
X264672312Y-196593328D01*
X264672312Y-196593328D02*
X264386598Y-196593328D01*
X264386598Y-196593328D02*
X264243741Y-196521900D01*
X264243741Y-196521900D02*
X264172312Y-196450471D01*
X264172312Y-196450471D02*
X264100884Y-196307614D01*
X264100884Y-196307614D02*
X264100884Y-195879042D01*
X264100884Y-195879042D02*
X264172312Y-195736185D01*
X264172312Y-195736185D02*
X264243741Y-195664757D01*
X264243741Y-195664757D02*
X264386598Y-195593328D01*
X264386598Y-195593328D02*
X264672312Y-195593328D01*
X264672312Y-195593328D02*
X264815170Y-195664757D01*
X265529455Y-196450471D02*
X265600884Y-196521900D01*
X265600884Y-196521900D02*
X265529455Y-196593328D01*
X265529455Y-196593328D02*
X265458027Y-196521900D01*
X265458027Y-196521900D02*
X265529455Y-196450471D01*
X265529455Y-196450471D02*
X265529455Y-196593328D01*
X265529455Y-195664757D02*
X265600884Y-195736185D01*
X265600884Y-195736185D02*
X265529455Y-195807614D01*
X265529455Y-195807614D02*
X265458027Y-195736185D01*
X265458027Y-195736185D02*
X265529455Y-195664757D01*
X265529455Y-195664757D02*
X265529455Y-195807614D01*
X268100884Y-195093328D02*
X267386598Y-195093328D01*
X267386598Y-195093328D02*
X267315170Y-195807614D01*
X267315170Y-195807614D02*
X267386598Y-195736185D01*
X267386598Y-195736185D02*
X267529456Y-195664757D01*
X267529456Y-195664757D02*
X267886598Y-195664757D01*
X267886598Y-195664757D02*
X268029456Y-195736185D01*
X268029456Y-195736185D02*
X268100884Y-195807614D01*
X268100884Y-195807614D02*
X268172313Y-195950471D01*
X268172313Y-195950471D02*
X268172313Y-196307614D01*
X268172313Y-196307614D02*
X268100884Y-196450471D01*
X268100884Y-196450471D02*
X268029456Y-196521900D01*
X268029456Y-196521900D02*
X267886598Y-196593328D01*
X267886598Y-196593328D02*
X267529456Y-196593328D01*
X267529456Y-196593328D02*
X267386598Y-196521900D01*
X267386598Y-196521900D02*
X267315170Y-196450471D01*
X269886598Y-195021900D02*
X268600884Y-196950471D01*
X271172313Y-196593328D02*
X270315170Y-196593328D01*
X270743741Y-196593328D02*
X270743741Y-195093328D01*
X270743741Y-195093328D02*
X270600884Y-195307614D01*
X270600884Y-195307614D02*
X270458027Y-195450471D01*
X270458027Y-195450471D02*
X270315170Y-195521900D01*
X272100884Y-195093328D02*
X272243741Y-195093328D01*
X272243741Y-195093328D02*
X272386598Y-195164757D01*
X272386598Y-195164757D02*
X272458027Y-195236185D01*
X272458027Y-195236185D02*
X272529455Y-195379042D01*
X272529455Y-195379042D02*
X272600884Y-195664757D01*
X272600884Y-195664757D02*
X272600884Y-196021900D01*
X272600884Y-196021900D02*
X272529455Y-196307614D01*
X272529455Y-196307614D02*
X272458027Y-196450471D01*
X272458027Y-196450471D02*
X272386598Y-196521900D01*
X272386598Y-196521900D02*
X272243741Y-196593328D01*
X272243741Y-196593328D02*
X272100884Y-196593328D01*
X272100884Y-196593328D02*
X271958027Y-196521900D01*
X271958027Y-196521900D02*
X271886598Y-196450471D01*
X271886598Y-196450471D02*
X271815169Y-196307614D01*
X271815169Y-196307614D02*
X271743741Y-196021900D01*
X271743741Y-196021900D02*
X271743741Y-195664757D01*
X271743741Y-195664757D02*
X271815169Y-195379042D01*
X271815169Y-195379042D02*
X271886598Y-195236185D01*
X271886598Y-195236185D02*
X271958027Y-195164757D01*
X271958027Y-195164757D02*
X272100884Y-195093328D01*
D10*
D11*
X177002200Y-187507200D02*
X285002200Y-187507200D01*
D10*
D13*
X178693928Y-188211638D02*
X179836785Y-188211638D01*
X179015357Y-190211638D02*
X179265357Y-188211638D01*
X180253452Y-190211638D02*
X180420119Y-188878304D01*
X180503452Y-188211638D02*
X180396309Y-188306876D01*
X180396309Y-188306876D02*
X180479643Y-188402114D01*
X180479643Y-188402114D02*
X180586786Y-188306876D01*
X180586786Y-188306876D02*
X180503452Y-188211638D01*
X180503452Y-188211638D02*
X180479643Y-188402114D01*
X181086786Y-188878304D02*
X181848690Y-188878304D01*
X181455833Y-188211638D02*
X181241548Y-189925923D01*
X181241548Y-189925923D02*
X181312976Y-190116400D01*
X181312976Y-190116400D02*
X181491548Y-190211638D01*
X181491548Y-190211638D02*
X181682024Y-190211638D01*
X182634405Y-190211638D02*
X182455833Y-190116400D01*
X182455833Y-190116400D02*
X182384405Y-189925923D01*
X182384405Y-189925923D02*
X182598690Y-188211638D01*
X184170119Y-190116400D02*
X183967738Y-190211638D01*
X183967738Y-190211638D02*
X183586785Y-190211638D01*
X183586785Y-190211638D02*
X183408214Y-190116400D01*
X183408214Y-190116400D02*
X183336785Y-189925923D01*
X183336785Y-189925923D02*
X183432024Y-189164019D01*
X183432024Y-189164019D02*
X183551071Y-188973542D01*
X183551071Y-188973542D02*
X183753452Y-188878304D01*
X183753452Y-188878304D02*
X184134404Y-188878304D01*
X184134404Y-188878304D02*
X184312976Y-188973542D01*
X184312976Y-188973542D02*
X184384404Y-189164019D01*
X184384404Y-189164019D02*
X184360595Y-189354495D01*
X184360595Y-189354495D02*
X183384404Y-189544971D01*
X185134405Y-190021161D02*
X185217738Y-190116400D01*
X185217738Y-190116400D02*
X185110595Y-190211638D01*
X185110595Y-190211638D02*
X185027262Y-190116400D01*
X185027262Y-190116400D02*
X185134405Y-190021161D01*
X185134405Y-190021161D02*
X185110595Y-190211638D01*
X185265357Y-188973542D02*
X185348690Y-189068780D01*
X185348690Y-189068780D02*
X185241548Y-189164019D01*
X185241548Y-189164019D02*
X185158214Y-189068780D01*
X185158214Y-189068780D02*
X185265357Y-188973542D01*
X185265357Y-188973542D02*
X185241548Y-189164019D01*
D10*
D11*
X178958026Y-185607614D02*
X178458026Y-185607614D01*
X178458026Y-186393328D02*
X178458026Y-184893328D01*
X178458026Y-184893328D02*
X179172312Y-184893328D01*
X179743740Y-186393328D02*
X179743740Y-185393328D01*
X179743740Y-184893328D02*
X179672312Y-184964757D01*
X179672312Y-184964757D02*
X179743740Y-185036185D01*
X179743740Y-185036185D02*
X179815169Y-184964757D01*
X179815169Y-184964757D02*
X179743740Y-184893328D01*
X179743740Y-184893328D02*
X179743740Y-185036185D01*
X180672312Y-186393328D02*
X180529455Y-186321900D01*
X180529455Y-186321900D02*
X180458026Y-186179042D01*
X180458026Y-186179042D02*
X180458026Y-184893328D01*
X181815169Y-186321900D02*
X181672312Y-186393328D01*
X181672312Y-186393328D02*
X181386598Y-186393328D01*
X181386598Y-186393328D02*
X181243740Y-186321900D01*
X181243740Y-186321900D02*
X181172312Y-186179042D01*
X181172312Y-186179042D02*
X181172312Y-185607614D01*
X181172312Y-185607614D02*
X181243740Y-185464757D01*
X181243740Y-185464757D02*
X181386598Y-185393328D01*
X181386598Y-185393328D02*
X181672312Y-185393328D01*
X181672312Y-185393328D02*
X181815169Y-185464757D01*
X181815169Y-185464757D02*
X181886598Y-185607614D01*
X181886598Y-185607614D02*
X181886598Y-185750471D01*
X181886598Y-185750471D02*
X181172312Y-185893328D01*
X182529454Y-186250471D02*
X182600883Y-186321900D01*
X182600883Y-186321900D02*
X182529454Y-186393328D01*
X182529454Y-186393328D02*
X182458026Y-186321900D01*
X182458026Y-186321900D02*
X182529454Y-186250471D01*
X182529454Y-186250471D02*
X182529454Y-186393328D01*
X182529454Y-185464757D02*
X182600883Y-185536185D01*
X182600883Y-185536185D02*
X182529454Y-185607614D01*
X182529454Y-185607614D02*
X182458026Y-185536185D01*
X182458026Y-185536185D02*
X182529454Y-185464757D01*
X182529454Y-185464757D02*
X182529454Y-185607614D01*
X184386597Y-186393328D02*
X184386597Y-185393328D01*
X184386597Y-185679042D02*
X184458026Y-185536185D01*
X184458026Y-185536185D02*
X184529455Y-185464757D01*
X184529455Y-185464757D02*
X184672312Y-185393328D01*
X184672312Y-185393328D02*
X184815169Y-185393328D01*
X185958026Y-185393328D02*
X185958026Y-186607614D01*
X185958026Y-186607614D02*
X185886597Y-186750471D01*
X185886597Y-186750471D02*
X185815168Y-186821900D01*
X185815168Y-186821900D02*
X185672311Y-186893328D01*
X185672311Y-186893328D02*
X185458026Y-186893328D01*
X185458026Y-186893328D02*
X185315168Y-186821900D01*
X185958026Y-186321900D02*
X185815168Y-186393328D01*
X185815168Y-186393328D02*
X185529454Y-186393328D01*
X185529454Y-186393328D02*
X185386597Y-186321900D01*
X185386597Y-186321900D02*
X185315168Y-186250471D01*
X185315168Y-186250471D02*
X185243740Y-186107614D01*
X185243740Y-186107614D02*
X185243740Y-185679042D01*
X185243740Y-185679042D02*
X185315168Y-185536185D01*
X185315168Y-185536185D02*
X185386597Y-185464757D01*
X185386597Y-185464757D02*
X185529454Y-185393328D01*
X185529454Y-185393328D02*
X185815168Y-185393328D01*
X185815168Y-185393328D02*
X185958026Y-185464757D01*
X186672311Y-186393328D02*
X186672311Y-184893328D01*
X186672311Y-185464757D02*
X186815169Y-185393328D01*
X186815169Y-185393328D02*
X187100883Y-185393328D01*
X187100883Y-185393328D02*
X187243740Y-185464757D01*
X187243740Y-185464757D02*
X187315169Y-185536185D01*
X187315169Y-185536185D02*
X187386597Y-185679042D01*
X187386597Y-185679042D02*
X187386597Y-186107614D01*
X187386597Y-186107614D02*
X187315169Y-186250471D01*
X187315169Y-186250471D02*
X187243740Y-186321900D01*
X187243740Y-186321900D02*
X187100883Y-186393328D01*
X187100883Y-186393328D02*
X186815169Y-186393328D01*
X186815169Y-186393328D02*
X186672311Y-186321900D01*
X187672312Y-186536185D02*
X188815169Y-186536185D01*
X189386597Y-186393328D02*
X189243740Y-186321900D01*
X189243740Y-186321900D02*
X189172311Y-186179042D01*
X189172311Y-186179042D02*
X189172311Y-184893328D01*
X190529454Y-186321900D02*
X190386597Y-186393328D01*
X190386597Y-186393328D02*
X190100883Y-186393328D01*
X190100883Y-186393328D02*
X189958025Y-186321900D01*
X189958025Y-186321900D02*
X189886597Y-186179042D01*
X189886597Y-186179042D02*
X189886597Y-185607614D01*
X189886597Y-185607614D02*
X189958025Y-185464757D01*
X189958025Y-185464757D02*
X190100883Y-185393328D01*
X190100883Y-185393328D02*
X190386597Y-185393328D01*
X190386597Y-185393328D02*
X190529454Y-185464757D01*
X190529454Y-185464757D02*
X190600883Y-185607614D01*
X190600883Y-185607614D02*
X190600883Y-185750471D01*
X190600883Y-185750471D02*
X189886597Y-185893328D01*
X191886597Y-186393328D02*
X191886597Y-184893328D01*
X191886597Y-186321900D02*
X191743739Y-186393328D01*
X191743739Y-186393328D02*
X191458025Y-186393328D01*
X191458025Y-186393328D02*
X191315168Y-186321900D01*
X191315168Y-186321900D02*
X191243739Y-186250471D01*
X191243739Y-186250471D02*
X191172311Y-186107614D01*
X191172311Y-186107614D02*
X191172311Y-185679042D01*
X191172311Y-185679042D02*
X191243739Y-185536185D01*
X191243739Y-185536185D02*
X191315168Y-185464757D01*
X191315168Y-185464757D02*
X191458025Y-185393328D01*
X191458025Y-185393328D02*
X191743739Y-185393328D01*
X191743739Y-185393328D02*
X191886597Y-185464757D01*
X192243740Y-186536185D02*
X193386597Y-186536185D01*
X194386597Y-186321900D02*
X194243739Y-186393328D01*
X194243739Y-186393328D02*
X193958025Y-186393328D01*
X193958025Y-186393328D02*
X193815168Y-186321900D01*
X193815168Y-186321900D02*
X193743739Y-186250471D01*
X193743739Y-186250471D02*
X193672311Y-186107614D01*
X193672311Y-186107614D02*
X193672311Y-185679042D01*
X193672311Y-185679042D02*
X193743739Y-185536185D01*
X193743739Y-185536185D02*
X193815168Y-185464757D01*
X193815168Y-185464757D02*
X193958025Y-185393328D01*
X193958025Y-185393328D02*
X194243739Y-185393328D01*
X194243739Y-185393328D02*
X194386597Y-185464757D01*
X195243739Y-186393328D02*
X195100882Y-186321900D01*
X195100882Y-186321900D02*
X195029453Y-186250471D01*
X195029453Y-186250471D02*
X194958025Y-186107614D01*
X194958025Y-186107614D02*
X194958025Y-185679042D01*
X194958025Y-185679042D02*
X195029453Y-185536185D01*
X195029453Y-185536185D02*
X195100882Y-185464757D01*
X195100882Y-185464757D02*
X195243739Y-185393328D01*
X195243739Y-185393328D02*
X195458025Y-185393328D01*
X195458025Y-185393328D02*
X195600882Y-185464757D01*
X195600882Y-185464757D02*
X195672311Y-185536185D01*
X195672311Y-185536185D02*
X195743739Y-185679042D01*
X195743739Y-185679042D02*
X195743739Y-186107614D01*
X195743739Y-186107614D02*
X195672311Y-186250471D01*
X195672311Y-186250471D02*
X195600882Y-186321900D01*
X195600882Y-186321900D02*
X195458025Y-186393328D01*
X195458025Y-186393328D02*
X195243739Y-186393328D01*
X196386596Y-185393328D02*
X196386596Y-186393328D01*
X196386596Y-185536185D02*
X196458025Y-185464757D01*
X196458025Y-185464757D02*
X196600882Y-185393328D01*
X196600882Y-185393328D02*
X196815168Y-185393328D01*
X196815168Y-185393328D02*
X196958025Y-185464757D01*
X196958025Y-185464757D02*
X197029454Y-185607614D01*
X197029454Y-185607614D02*
X197029454Y-186393328D01*
X197529454Y-185393328D02*
X198100882Y-185393328D01*
X197743739Y-184893328D02*
X197743739Y-186179042D01*
X197743739Y-186179042D02*
X197815168Y-186321900D01*
X197815168Y-186321900D02*
X197958025Y-186393328D01*
X197958025Y-186393328D02*
X198100882Y-186393328D01*
X198600882Y-186393328D02*
X198600882Y-185393328D01*
X198600882Y-185679042D02*
X198672311Y-185536185D01*
X198672311Y-185536185D02*
X198743740Y-185464757D01*
X198743740Y-185464757D02*
X198886597Y-185393328D01*
X198886597Y-185393328D02*
X199029454Y-185393328D01*
X199743739Y-186393328D02*
X199600882Y-186321900D01*
X199600882Y-186321900D02*
X199529453Y-186250471D01*
X199529453Y-186250471D02*
X199458025Y-186107614D01*
X199458025Y-186107614D02*
X199458025Y-185679042D01*
X199458025Y-185679042D02*
X199529453Y-185536185D01*
X199529453Y-185536185D02*
X199600882Y-185464757D01*
X199600882Y-185464757D02*
X199743739Y-185393328D01*
X199743739Y-185393328D02*
X199958025Y-185393328D01*
X199958025Y-185393328D02*
X200100882Y-185464757D01*
X200100882Y-185464757D02*
X200172311Y-185536185D01*
X200172311Y-185536185D02*
X200243739Y-185679042D01*
X200243739Y-185679042D02*
X200243739Y-186107614D01*
X200243739Y-186107614D02*
X200172311Y-186250471D01*
X200172311Y-186250471D02*
X200100882Y-186321900D01*
X200100882Y-186321900D02*
X199958025Y-186393328D01*
X199958025Y-186393328D02*
X199743739Y-186393328D01*
X201100882Y-186393328D02*
X200958025Y-186321900D01*
X200958025Y-186321900D02*
X200886596Y-186179042D01*
X200886596Y-186179042D02*
X200886596Y-184893328D01*
X201886596Y-186393328D02*
X201743739Y-186321900D01*
X201743739Y-186321900D02*
X201672310Y-186179042D01*
X201672310Y-186179042D02*
X201672310Y-184893328D01*
X203029453Y-186321900D02*
X202886596Y-186393328D01*
X202886596Y-186393328D02*
X202600882Y-186393328D01*
X202600882Y-186393328D02*
X202458024Y-186321900D01*
X202458024Y-186321900D02*
X202386596Y-186179042D01*
X202386596Y-186179042D02*
X202386596Y-185607614D01*
X202386596Y-185607614D02*
X202458024Y-185464757D01*
X202458024Y-185464757D02*
X202600882Y-185393328D01*
X202600882Y-185393328D02*
X202886596Y-185393328D01*
X202886596Y-185393328D02*
X203029453Y-185464757D01*
X203029453Y-185464757D02*
X203100882Y-185607614D01*
X203100882Y-185607614D02*
X203100882Y-185750471D01*
X203100882Y-185750471D02*
X202386596Y-185893328D01*
X203743738Y-186393328D02*
X203743738Y-185393328D01*
X203743738Y-185679042D02*
X203815167Y-185536185D01*
X203815167Y-185536185D02*
X203886596Y-185464757D01*
X203886596Y-185464757D02*
X204029453Y-185393328D01*
X204029453Y-185393328D02*
X204172310Y-185393328D01*
X204672309Y-186250471D02*
X204743738Y-186321900D01*
X204743738Y-186321900D02*
X204672309Y-186393328D01*
X204672309Y-186393328D02*
X204600881Y-186321900D01*
X204600881Y-186321900D02*
X204672309Y-186250471D01*
X204672309Y-186250471D02*
X204672309Y-186393328D01*
X205386595Y-186393328D02*
X205386595Y-184893328D01*
X205529453Y-185821900D02*
X205958024Y-186393328D01*
X205958024Y-185393328D02*
X205386595Y-185964757D01*
X206600881Y-186393328D02*
X206600881Y-185393328D01*
X206600881Y-184893328D02*
X206529453Y-184964757D01*
X206529453Y-184964757D02*
X206600881Y-185036185D01*
X206600881Y-185036185D02*
X206672310Y-184964757D01*
X206672310Y-184964757D02*
X206600881Y-184893328D01*
X206600881Y-184893328D02*
X206600881Y-185036185D01*
X207958025Y-186321900D02*
X207815167Y-186393328D01*
X207815167Y-186393328D02*
X207529453Y-186393328D01*
X207529453Y-186393328D02*
X207386596Y-186321900D01*
X207386596Y-186321900D02*
X207315167Y-186250471D01*
X207315167Y-186250471D02*
X207243739Y-186107614D01*
X207243739Y-186107614D02*
X207243739Y-185679042D01*
X207243739Y-185679042D02*
X207315167Y-185536185D01*
X207315167Y-185536185D02*
X207386596Y-185464757D01*
X207386596Y-185464757D02*
X207529453Y-185393328D01*
X207529453Y-185393328D02*
X207815167Y-185393328D01*
X207815167Y-185393328D02*
X207958025Y-185464757D01*
X209243739Y-186393328D02*
X209243739Y-185607614D01*
X209243739Y-185607614D02*
X209172310Y-185464757D01*
X209172310Y-185464757D02*
X209029453Y-185393328D01*
X209029453Y-185393328D02*
X208743739Y-185393328D01*
X208743739Y-185393328D02*
X208600881Y-185464757D01*
X209243739Y-186321900D02*
X209100881Y-186393328D01*
X209100881Y-186393328D02*
X208743739Y-186393328D01*
X208743739Y-186393328D02*
X208600881Y-186321900D01*
X208600881Y-186321900D02*
X208529453Y-186179042D01*
X208529453Y-186179042D02*
X208529453Y-186036185D01*
X208529453Y-186036185D02*
X208600881Y-185893328D01*
X208600881Y-185893328D02*
X208743739Y-185821900D01*
X208743739Y-185821900D02*
X209100881Y-185821900D01*
X209100881Y-185821900D02*
X209243739Y-185750471D01*
X210600882Y-186393328D02*
X210600882Y-184893328D01*
X210600882Y-186321900D02*
X210458024Y-186393328D01*
X210458024Y-186393328D02*
X210172310Y-186393328D01*
X210172310Y-186393328D02*
X210029453Y-186321900D01*
X210029453Y-186321900D02*
X209958024Y-186250471D01*
X209958024Y-186250471D02*
X209886596Y-186107614D01*
X209886596Y-186107614D02*
X209886596Y-185679042D01*
X209886596Y-185679042D02*
X209958024Y-185536185D01*
X209958024Y-185536185D02*
X210029453Y-185464757D01*
X210029453Y-185464757D02*
X210172310Y-185393328D01*
X210172310Y-185393328D02*
X210458024Y-185393328D01*
X210458024Y-185393328D02*
X210600882Y-185464757D01*
X210958025Y-186536185D02*
X212100882Y-186536185D01*
X212458024Y-185393328D02*
X212458024Y-186893328D01*
X212458024Y-185464757D02*
X212600882Y-185393328D01*
X212600882Y-185393328D02*
X212886596Y-185393328D01*
X212886596Y-185393328D02*
X213029453Y-185464757D01*
X213029453Y-185464757D02*
X213100882Y-185536185D01*
X213100882Y-185536185D02*
X213172310Y-185679042D01*
X213172310Y-185679042D02*
X213172310Y-186107614D01*
X213172310Y-186107614D02*
X213100882Y-186250471D01*
X213100882Y-186250471D02*
X213029453Y-186321900D01*
X213029453Y-186321900D02*
X212886596Y-186393328D01*
X212886596Y-186393328D02*
X212600882Y-186393328D01*
X212600882Y-186393328D02*
X212458024Y-186321900D01*
X214458025Y-186321900D02*
X214315167Y-186393328D01*
X214315167Y-186393328D02*
X214029453Y-186393328D01*
X214029453Y-186393328D02*
X213886596Y-186321900D01*
X213886596Y-186321900D02*
X213815167Y-186250471D01*
X213815167Y-186250471D02*
X213743739Y-186107614D01*
X213743739Y-186107614D02*
X213743739Y-185679042D01*
X213743739Y-185679042D02*
X213815167Y-185536185D01*
X213815167Y-185536185D02*
X213886596Y-185464757D01*
X213886596Y-185464757D02*
X214029453Y-185393328D01*
X214029453Y-185393328D02*
X214315167Y-185393328D01*
X214315167Y-185393328D02*
X214458025Y-185464757D01*
X215100881Y-186393328D02*
X215100881Y-184893328D01*
X215100881Y-185464757D02*
X215243739Y-185393328D01*
X215243739Y-185393328D02*
X215529453Y-185393328D01*
X215529453Y-185393328D02*
X215672310Y-185464757D01*
X215672310Y-185464757D02*
X215743739Y-185536185D01*
X215743739Y-185536185D02*
X215815167Y-185679042D01*
X215815167Y-185679042D02*
X215815167Y-186107614D01*
X215815167Y-186107614D02*
X215743739Y-186250471D01*
X215743739Y-186250471D02*
X215672310Y-186321900D01*
X215672310Y-186321900D02*
X215529453Y-186393328D01*
X215529453Y-186393328D02*
X215243739Y-186393328D01*
X215243739Y-186393328D02*
X215100881Y-186321900D01*
D10*
D11*
X177002200Y-181507200D02*
X285002200Y-181507200D01*
D10*
D11*
X178386598Y-183621900D02*
X178600884Y-183693328D01*
X178600884Y-183693328D02*
X178958026Y-183693328D01*
X178958026Y-183693328D02*
X179100884Y-183621900D01*
X179100884Y-183621900D02*
X179172312Y-183550471D01*
X179172312Y-183550471D02*
X179243741Y-183407614D01*
X179243741Y-183407614D02*
X179243741Y-183264757D01*
X179243741Y-183264757D02*
X179172312Y-183121900D01*
X179172312Y-183121900D02*
X179100884Y-183050471D01*
X179100884Y-183050471D02*
X178958026Y-182979042D01*
X178958026Y-182979042D02*
X178672312Y-182907614D01*
X178672312Y-182907614D02*
X178529455Y-182836185D01*
X178529455Y-182836185D02*
X178458026Y-182764757D01*
X178458026Y-182764757D02*
X178386598Y-182621900D01*
X178386598Y-182621900D02*
X178386598Y-182479042D01*
X178386598Y-182479042D02*
X178458026Y-182336185D01*
X178458026Y-182336185D02*
X178529455Y-182264757D01*
X178529455Y-182264757D02*
X178672312Y-182193328D01*
X178672312Y-182193328D02*
X179029455Y-182193328D01*
X179029455Y-182193328D02*
X179243741Y-182264757D01*
X179886597Y-183693328D02*
X179886597Y-182193328D01*
X180529455Y-183693328D02*
X180529455Y-182907614D01*
X180529455Y-182907614D02*
X180458026Y-182764757D01*
X180458026Y-182764757D02*
X180315169Y-182693328D01*
X180315169Y-182693328D02*
X180100883Y-182693328D01*
X180100883Y-182693328D02*
X179958026Y-182764757D01*
X179958026Y-182764757D02*
X179886597Y-182836185D01*
X181815169Y-183621900D02*
X181672312Y-183693328D01*
X181672312Y-183693328D02*
X181386598Y-183693328D01*
X181386598Y-183693328D02*
X181243740Y-183621900D01*
X181243740Y-183621900D02*
X181172312Y-183479042D01*
X181172312Y-183479042D02*
X181172312Y-182907614D01*
X181172312Y-182907614D02*
X181243740Y-182764757D01*
X181243740Y-182764757D02*
X181386598Y-182693328D01*
X181386598Y-182693328D02*
X181672312Y-182693328D01*
X181672312Y-182693328D02*
X181815169Y-182764757D01*
X181815169Y-182764757D02*
X181886598Y-182907614D01*
X181886598Y-182907614D02*
X181886598Y-183050471D01*
X181886598Y-183050471D02*
X181172312Y-183193328D01*
X183100883Y-183621900D02*
X182958026Y-183693328D01*
X182958026Y-183693328D02*
X182672312Y-183693328D01*
X182672312Y-183693328D02*
X182529454Y-183621900D01*
X182529454Y-183621900D02*
X182458026Y-183479042D01*
X182458026Y-183479042D02*
X182458026Y-182907614D01*
X182458026Y-182907614D02*
X182529454Y-182764757D01*
X182529454Y-182764757D02*
X182672312Y-182693328D01*
X182672312Y-182693328D02*
X182958026Y-182693328D01*
X182958026Y-182693328D02*
X183100883Y-182764757D01*
X183100883Y-182764757D02*
X183172312Y-182907614D01*
X183172312Y-182907614D02*
X183172312Y-183050471D01*
X183172312Y-183050471D02*
X182458026Y-183193328D01*
X183600883Y-182693328D02*
X184172311Y-182693328D01*
X183815168Y-182193328D02*
X183815168Y-183479042D01*
X183815168Y-183479042D02*
X183886597Y-183621900D01*
X183886597Y-183621900D02*
X184029454Y-183693328D01*
X184029454Y-183693328D02*
X184172311Y-183693328D01*
X184672311Y-183550471D02*
X184743740Y-183621900D01*
X184743740Y-183621900D02*
X184672311Y-183693328D01*
X184672311Y-183693328D02*
X184600883Y-183621900D01*
X184600883Y-183621900D02*
X184672311Y-183550471D01*
X184672311Y-183550471D02*
X184672311Y-183693328D01*
X184672311Y-182764757D02*
X184743740Y-182836185D01*
X184743740Y-182836185D02*
X184672311Y-182907614D01*
X184672311Y-182907614D02*
X184600883Y-182836185D01*
X184600883Y-182836185D02*
X184672311Y-182764757D01*
X184672311Y-182764757D02*
X184672311Y-182907614D01*
D10*
D11*
X197002200Y-191507200D02*
X197002200Y-194507200D01*
D10*
D11*
X261002200Y-191507200D02*
X261002200Y-198007200D01*
D10*
X185400000Y-83200000D02*
X185400000Y-138100000D01*
X212700000Y-85300000D02*
X250700000Y-85300000D01*
X250700000Y-97300000D01*
X212700000Y-97300000D01*
X212700000Y-85300000D01*
X188000000Y-109000000D02*
X222000000Y-109000000D01*
X222000000Y-135000000D01*
X188000000Y-135000000D01*
X188000000Y-109000000D01*
X252400000Y-138100000D02*
X252400000Y-83200000D01*
X252400000Y-83200000D02*
X185400000Y-83200000D01*
X185400000Y-138100000D02*
X252400000Y-138100000D01*
D14*
X229506028Y-129254136D02*
X228791742Y-129754136D01*
X229506028Y-130111279D02*
X228006028Y-130111279D01*
X228006028Y-130111279D02*
X228006028Y-129539850D01*
X228006028Y-129539850D02*
X228077457Y-129396993D01*
X228077457Y-129396993D02*
X228148885Y-129325564D01*
X228148885Y-129325564D02*
X228291742Y-129254136D01*
X228291742Y-129254136D02*
X228506028Y-129254136D01*
X228506028Y-129254136D02*
X228648885Y-129325564D01*
X228648885Y-129325564D02*
X228720314Y-129396993D01*
X228720314Y-129396993D02*
X228791742Y-129539850D01*
X228791742Y-129539850D02*
X228791742Y-130111279D01*
X228077457Y-127825564D02*
X228006028Y-127968422D01*
X228006028Y-127968422D02*
X228006028Y-128182707D01*
X228006028Y-128182707D02*
X228077457Y-128396993D01*
X228077457Y-128396993D02*
X228220314Y-128539850D01*
X228220314Y-128539850D02*
X228363171Y-128611279D01*
X228363171Y-128611279D02*
X228648885Y-128682707D01*
X228648885Y-128682707D02*
X228863171Y-128682707D01*
X228863171Y-128682707D02*
X229148885Y-128611279D01*
X229148885Y-128611279D02*
X229291742Y-128539850D01*
X229291742Y-128539850D02*
X229434600Y-128396993D01*
X229434600Y-128396993D02*
X229506028Y-128182707D01*
X229506028Y-128182707D02*
X229506028Y-128039850D01*
X229506028Y-128039850D02*
X229434600Y-127825564D01*
X229434600Y-127825564D02*
X229363171Y-127754136D01*
X229363171Y-127754136D02*
X228863171Y-127754136D01*
X228863171Y-127754136D02*
X228863171Y-128039850D01*
X228720314Y-126611279D02*
X228791742Y-126396993D01*
X228791742Y-126396993D02*
X228863171Y-126325564D01*
X228863171Y-126325564D02*
X229006028Y-126254136D01*
X229006028Y-126254136D02*
X229220314Y-126254136D01*
X229220314Y-126254136D02*
X229363171Y-126325564D01*
X229363171Y-126325564D02*
X229434600Y-126396993D01*
X229434600Y-126396993D02*
X229506028Y-126539850D01*
X229506028Y-126539850D02*
X229506028Y-127111279D01*
X229506028Y-127111279D02*
X228006028Y-127111279D01*
X228006028Y-127111279D02*
X228006028Y-126611279D01*
X228006028Y-126611279D02*
X228077457Y-126468422D01*
X228077457Y-126468422D02*
X228148885Y-126396993D01*
X228148885Y-126396993D02*
X228291742Y-126325564D01*
X228291742Y-126325564D02*
X228434600Y-126325564D01*
X228434600Y-126325564D02*
X228577457Y-126396993D01*
X228577457Y-126396993D02*
X228648885Y-126468422D01*
X228648885Y-126468422D02*
X228720314Y-126611279D01*
X228720314Y-126611279D02*
X228720314Y-127111279D01*
X229506028Y-124468422D02*
X228506028Y-124468422D01*
X228648885Y-124468422D02*
X228577457Y-124396993D01*
X228577457Y-124396993D02*
X228506028Y-124254136D01*
X228506028Y-124254136D02*
X228506028Y-124039850D01*
X228506028Y-124039850D02*
X228577457Y-123896993D01*
X228577457Y-123896993D02*
X228720314Y-123825565D01*
X228720314Y-123825565D02*
X229506028Y-123825565D01*
X228720314Y-123825565D02*
X228577457Y-123754136D01*
X228577457Y-123754136D02*
X228506028Y-123611279D01*
X228506028Y-123611279D02*
X228506028Y-123396993D01*
X228506028Y-123396993D02*
X228577457Y-123254136D01*
X228577457Y-123254136D02*
X228720314Y-123182707D01*
X228720314Y-123182707D02*
X229506028Y-123182707D01*
X229506028Y-122468422D02*
X228506028Y-122468422D01*
X228006028Y-122468422D02*
X228077457Y-122539850D01*
X228077457Y-122539850D02*
X228148885Y-122468422D01*
X228148885Y-122468422D02*
X228077457Y-122396993D01*
X228077457Y-122396993D02*
X228006028Y-122468422D01*
X228006028Y-122468422D02*
X228148885Y-122468422D01*
X229434600Y-121111279D02*
X229506028Y-121254136D01*
X229506028Y-121254136D02*
X229506028Y-121539850D01*
X229506028Y-121539850D02*
X229434600Y-121682707D01*
X229434600Y-121682707D02*
X229363171Y-121754136D01*
X229363171Y-121754136D02*
X229220314Y-121825564D01*
X229220314Y-121825564D02*
X228791742Y-121825564D01*
X228791742Y-121825564D02*
X228648885Y-121754136D01*
X228648885Y-121754136D02*
X228577457Y-121682707D01*
X228577457Y-121682707D02*
X228506028Y-121539850D01*
X228506028Y-121539850D02*
X228506028Y-121254136D01*
X228506028Y-121254136D02*
X228577457Y-121111279D01*
X229506028Y-120468422D02*
X228506028Y-120468422D01*
X228791742Y-120468422D02*
X228648885Y-120396993D01*
X228648885Y-120396993D02*
X228577457Y-120325565D01*
X228577457Y-120325565D02*
X228506028Y-120182707D01*
X228506028Y-120182707D02*
X228506028Y-120039850D01*
X229506028Y-119325565D02*
X229434600Y-119468422D01*
X229434600Y-119468422D02*
X229363171Y-119539851D01*
X229363171Y-119539851D02*
X229220314Y-119611279D01*
X229220314Y-119611279D02*
X228791742Y-119611279D01*
X228791742Y-119611279D02*
X228648885Y-119539851D01*
X228648885Y-119539851D02*
X228577457Y-119468422D01*
X228577457Y-119468422D02*
X228506028Y-119325565D01*
X228506028Y-119325565D02*
X228506028Y-119111279D01*
X228506028Y-119111279D02*
X228577457Y-118968422D01*
X228577457Y-118968422D02*
X228648885Y-118896994D01*
X228648885Y-118896994D02*
X228791742Y-118825565D01*
X228791742Y-118825565D02*
X229220314Y-118825565D01*
X229220314Y-118825565D02*
X229363171Y-118896994D01*
X229363171Y-118896994D02*
X229434600Y-118968422D01*
X229434600Y-118968422D02*
X229506028Y-119111279D01*
X229506028Y-119111279D02*
X229506028Y-119325565D01*
X228506028Y-118182708D02*
X230006028Y-118182708D01*
X228577457Y-118182708D02*
X228506028Y-118039851D01*
X228506028Y-118039851D02*
X228506028Y-117754136D01*
X228506028Y-117754136D02*
X228577457Y-117611279D01*
X228577457Y-117611279D02*
X228648885Y-117539851D01*
X228648885Y-117539851D02*
X228791742Y-117468422D01*
X228791742Y-117468422D02*
X229220314Y-117468422D01*
X229220314Y-117468422D02*
X229363171Y-117539851D01*
X229363171Y-117539851D02*
X229434600Y-117611279D01*
X229434600Y-117611279D02*
X229506028Y-117754136D01*
X229506028Y-117754136D02*
X229506028Y-118039851D01*
X229506028Y-118039851D02*
X229434600Y-118182708D01*
X229506028Y-116182708D02*
X228720314Y-116182708D01*
X228720314Y-116182708D02*
X228577457Y-116254136D01*
X228577457Y-116254136D02*
X228506028Y-116396993D01*
X228506028Y-116396993D02*
X228506028Y-116682708D01*
X228506028Y-116682708D02*
X228577457Y-116825565D01*
X229434600Y-116182708D02*
X229506028Y-116325565D01*
X229506028Y-116325565D02*
X229506028Y-116682708D01*
X229506028Y-116682708D02*
X229434600Y-116825565D01*
X229434600Y-116825565D02*
X229291742Y-116896993D01*
X229291742Y-116896993D02*
X229148885Y-116896993D01*
X229148885Y-116896993D02*
X229006028Y-116825565D01*
X229006028Y-116825565D02*
X228934600Y-116682708D01*
X228934600Y-116682708D02*
X228934600Y-116325565D01*
X228934600Y-116325565D02*
X228863171Y-116182708D01*
X229506028Y-114825565D02*
X228006028Y-114825565D01*
X229434600Y-114825565D02*
X229506028Y-114968422D01*
X229506028Y-114968422D02*
X229506028Y-115254136D01*
X229506028Y-115254136D02*
X229434600Y-115396993D01*
X229434600Y-115396993D02*
X229363171Y-115468422D01*
X229363171Y-115468422D02*
X229220314Y-115539850D01*
X229220314Y-115539850D02*
X228791742Y-115539850D01*
X228791742Y-115539850D02*
X228648885Y-115468422D01*
X228648885Y-115468422D02*
X228577457Y-115396993D01*
X228577457Y-115396993D02*
X228506028Y-115254136D01*
X228506028Y-115254136D02*
X228506028Y-114968422D01*
X228506028Y-114968422D02*
X228577457Y-114825565D01*
X229363171Y-114111279D02*
X229434600Y-114039850D01*
X229434600Y-114039850D02*
X229506028Y-114111279D01*
X229506028Y-114111279D02*
X229434600Y-114182707D01*
X229434600Y-114182707D02*
X229363171Y-114111279D01*
X229363171Y-114111279D02*
X229506028Y-114111279D01*
X228934600Y-114111279D02*
X228077457Y-114182707D01*
X228077457Y-114182707D02*
X228006028Y-114111279D01*
X228006028Y-114111279D02*
X228077457Y-114039850D01*
X228077457Y-114039850D02*
X228934600Y-114111279D01*
X228934600Y-114111279D02*
X228006028Y-114111279D01*
D15*
X228748120Y-90993775D02*
X228900501Y-90993775D01*
X228900501Y-90993775D02*
X228976691Y-91031870D01*
X228976691Y-91031870D02*
X229052882Y-91108060D01*
X229052882Y-91108060D02*
X229090977Y-91260441D01*
X229090977Y-91260441D02*
X229090977Y-91527108D01*
X229090977Y-91527108D02*
X229052882Y-91679489D01*
X229052882Y-91679489D02*
X228976691Y-91755680D01*
X228976691Y-91755680D02*
X228900501Y-91793775D01*
X228900501Y-91793775D02*
X228748120Y-91793775D01*
X228748120Y-91793775D02*
X228671929Y-91755680D01*
X228671929Y-91755680D02*
X228595739Y-91679489D01*
X228595739Y-91679489D02*
X228557643Y-91527108D01*
X228557643Y-91527108D02*
X228557643Y-91260441D01*
X228557643Y-91260441D02*
X228595739Y-91108060D01*
X228595739Y-91108060D02*
X228671929Y-91031870D01*
X228671929Y-91031870D02*
X228748120Y-90993775D01*
X229814786Y-91793775D02*
X229433834Y-91793775D01*
X229433834Y-91793775D02*
X229433834Y-90993775D01*
X230081453Y-91374727D02*
X230348119Y-91374727D01*
X230462405Y-91793775D02*
X230081453Y-91793775D01*
X230081453Y-91793775D02*
X230081453Y-90993775D01*
X230081453Y-90993775D02*
X230462405Y-90993775D01*
X230805263Y-91793775D02*
X230805263Y-90993775D01*
X230805263Y-90993775D02*
X230995739Y-90993775D01*
X230995739Y-90993775D02*
X231110025Y-91031870D01*
X231110025Y-91031870D02*
X231186215Y-91108060D01*
X231186215Y-91108060D02*
X231224310Y-91184251D01*
X231224310Y-91184251D02*
X231262406Y-91336632D01*
X231262406Y-91336632D02*
X231262406Y-91450918D01*
X231262406Y-91450918D02*
X231224310Y-91603299D01*
X231224310Y-91603299D02*
X231186215Y-91679489D01*
X231186215Y-91679489D02*
X231110025Y-91755680D01*
X231110025Y-91755680D02*
X230995739Y-91793775D01*
X230995739Y-91793775D02*
X230805263Y-91793775D01*
X232176691Y-91755680D02*
X232252882Y-91793775D01*
X232252882Y-91793775D02*
X232405263Y-91793775D01*
X232405263Y-91793775D02*
X232481453Y-91755680D01*
X232481453Y-91755680D02*
X232519549Y-91679489D01*
X232519549Y-91679489D02*
X232519549Y-91641394D01*
X232519549Y-91641394D02*
X232481453Y-91565203D01*
X232481453Y-91565203D02*
X232405263Y-91527108D01*
X232405263Y-91527108D02*
X232290977Y-91527108D01*
X232290977Y-91527108D02*
X232214787Y-91489013D01*
X232214787Y-91489013D02*
X232176691Y-91412822D01*
X232176691Y-91412822D02*
X232176691Y-91374727D01*
X232176691Y-91374727D02*
X232214787Y-91298537D01*
X232214787Y-91298537D02*
X232290977Y-91260441D01*
X232290977Y-91260441D02*
X232405263Y-91260441D01*
X232405263Y-91260441D02*
X232481453Y-91298537D01*
X233205263Y-91755680D02*
X233129072Y-91793775D01*
X233129072Y-91793775D02*
X232976691Y-91793775D01*
X232976691Y-91793775D02*
X232900501Y-91755680D01*
X232900501Y-91755680D02*
X232862406Y-91717584D01*
X232862406Y-91717584D02*
X232824310Y-91641394D01*
X232824310Y-91641394D02*
X232824310Y-91412822D01*
X232824310Y-91412822D02*
X232862406Y-91336632D01*
X232862406Y-91336632D02*
X232900501Y-91298537D01*
X232900501Y-91298537D02*
X232976691Y-91260441D01*
X232976691Y-91260441D02*
X233129072Y-91260441D01*
X233129072Y-91260441D02*
X233205263Y-91298537D01*
X233548120Y-91793775D02*
X233548120Y-91260441D01*
X233548120Y-91412822D02*
X233586215Y-91336632D01*
X233586215Y-91336632D02*
X233624310Y-91298537D01*
X233624310Y-91298537D02*
X233700501Y-91260441D01*
X233700501Y-91260441D02*
X233776691Y-91260441D01*
X234348120Y-91755680D02*
X234271929Y-91793775D01*
X234271929Y-91793775D02*
X234119548Y-91793775D01*
X234119548Y-91793775D02*
X234043358Y-91755680D01*
X234043358Y-91755680D02*
X234005262Y-91679489D01*
X234005262Y-91679489D02*
X234005262Y-91374727D01*
X234005262Y-91374727D02*
X234043358Y-91298537D01*
X234043358Y-91298537D02*
X234119548Y-91260441D01*
X234119548Y-91260441D02*
X234271929Y-91260441D01*
X234271929Y-91260441D02*
X234348120Y-91298537D01*
X234348120Y-91298537D02*
X234386215Y-91374727D01*
X234386215Y-91374727D02*
X234386215Y-91450918D01*
X234386215Y-91450918D02*
X234005262Y-91527108D01*
X235033834Y-91755680D02*
X234957643Y-91793775D01*
X234957643Y-91793775D02*
X234805262Y-91793775D01*
X234805262Y-91793775D02*
X234729072Y-91755680D01*
X234729072Y-91755680D02*
X234690976Y-91679489D01*
X234690976Y-91679489D02*
X234690976Y-91374727D01*
X234690976Y-91374727D02*
X234729072Y-91298537D01*
X234729072Y-91298537D02*
X234805262Y-91260441D01*
X234805262Y-91260441D02*
X234957643Y-91260441D01*
X234957643Y-91260441D02*
X235033834Y-91298537D01*
X235033834Y-91298537D02*
X235071929Y-91374727D01*
X235071929Y-91374727D02*
X235071929Y-91450918D01*
X235071929Y-91450918D02*
X234690976Y-91527108D01*
X235414786Y-91260441D02*
X235414786Y-91793775D01*
X235414786Y-91336632D02*
X235452881Y-91298537D01*
X235452881Y-91298537D02*
X235529071Y-91260441D01*
X235529071Y-91260441D02*
X235643357Y-91260441D01*
X235643357Y-91260441D02*
X235719548Y-91298537D01*
X235719548Y-91298537D02*
X235757643Y-91374727D01*
X235757643Y-91374727D02*
X235757643Y-91793775D01*
D11*
X234894295Y-106759880D02*
X234513342Y-107026547D01*
X234894295Y-107217023D02*
X234094295Y-107217023D01*
X234094295Y-107217023D02*
X234094295Y-106912261D01*
X234094295Y-106912261D02*
X234132390Y-106836071D01*
X234132390Y-106836071D02*
X234170485Y-106797976D01*
X234170485Y-106797976D02*
X234246676Y-106759880D01*
X234246676Y-106759880D02*
X234360961Y-106759880D01*
X234360961Y-106759880D02*
X234437152Y-106797976D01*
X234437152Y-106797976D02*
X234475247Y-106836071D01*
X234475247Y-106836071D02*
X234513342Y-106912261D01*
X234513342Y-106912261D02*
X234513342Y-107217023D01*
X234132390Y-105997976D02*
X234094295Y-106074166D01*
X234094295Y-106074166D02*
X234094295Y-106188452D01*
X234094295Y-106188452D02*
X234132390Y-106302738D01*
X234132390Y-106302738D02*
X234208580Y-106378928D01*
X234208580Y-106378928D02*
X234284771Y-106417023D01*
X234284771Y-106417023D02*
X234437152Y-106455119D01*
X234437152Y-106455119D02*
X234551438Y-106455119D01*
X234551438Y-106455119D02*
X234703819Y-106417023D01*
X234703819Y-106417023D02*
X234780009Y-106378928D01*
X234780009Y-106378928D02*
X234856200Y-106302738D01*
X234856200Y-106302738D02*
X234894295Y-106188452D01*
X234894295Y-106188452D02*
X234894295Y-106112261D01*
X234894295Y-106112261D02*
X234856200Y-105997976D01*
X234856200Y-105997976D02*
X234818104Y-105959880D01*
X234818104Y-105959880D02*
X234551438Y-105959880D01*
X234551438Y-105959880D02*
X234551438Y-106112261D01*
X234475247Y-105350357D02*
X234513342Y-105236071D01*
X234513342Y-105236071D02*
X234551438Y-105197976D01*
X234551438Y-105197976D02*
X234627628Y-105159880D01*
X234627628Y-105159880D02*
X234741914Y-105159880D01*
X234741914Y-105159880D02*
X234818104Y-105197976D01*
X234818104Y-105197976D02*
X234856200Y-105236071D01*
X234856200Y-105236071D02*
X234894295Y-105312261D01*
X234894295Y-105312261D02*
X234894295Y-105617023D01*
X234894295Y-105617023D02*
X234094295Y-105617023D01*
X234094295Y-105617023D02*
X234094295Y-105350357D01*
X234094295Y-105350357D02*
X234132390Y-105274166D01*
X234132390Y-105274166D02*
X234170485Y-105236071D01*
X234170485Y-105236071D02*
X234246676Y-105197976D01*
X234246676Y-105197976D02*
X234322866Y-105197976D01*
X234322866Y-105197976D02*
X234399057Y-105236071D01*
X234399057Y-105236071D02*
X234437152Y-105274166D01*
X234437152Y-105274166D02*
X234475247Y-105350357D01*
X234475247Y-105350357D02*
X234475247Y-105617023D01*
X234894295Y-103826547D02*
X234894295Y-104207499D01*
X234894295Y-104207499D02*
X234094295Y-104207499D01*
X234475247Y-103559880D02*
X234475247Y-103293214D01*
X234894295Y-103178928D02*
X234894295Y-103559880D01*
X234894295Y-103559880D02*
X234094295Y-103559880D01*
X234094295Y-103559880D02*
X234094295Y-103178928D01*
X234894295Y-102836070D02*
X234094295Y-102836070D01*
X234094295Y-102836070D02*
X234094295Y-102645594D01*
X234094295Y-102645594D02*
X234132390Y-102531308D01*
X234132390Y-102531308D02*
X234208580Y-102455118D01*
X234208580Y-102455118D02*
X234284771Y-102417023D01*
X234284771Y-102417023D02*
X234437152Y-102378927D01*
X234437152Y-102378927D02*
X234551438Y-102378927D01*
X234551438Y-102378927D02*
X234703819Y-102417023D01*
X234703819Y-102417023D02*
X234780009Y-102455118D01*
X234780009Y-102455118D02*
X234856200Y-102531308D01*
X234856200Y-102531308D02*
X234894295Y-102645594D01*
X234894295Y-102645594D02*
X234894295Y-102836070D01*
D15*
X203224310Y-122493775D02*
X203224310Y-123065203D01*
X203224310Y-123065203D02*
X203186215Y-123179489D01*
X203186215Y-123179489D02*
X203110024Y-123255680D01*
X203110024Y-123255680D02*
X202995739Y-123293775D01*
X202995739Y-123293775D02*
X202919548Y-123293775D01*
X203719548Y-123293775D02*
X203643358Y-123255680D01*
X203643358Y-123255680D02*
X203605263Y-123217584D01*
X203605263Y-123217584D02*
X203567167Y-123141394D01*
X203567167Y-123141394D02*
X203567167Y-122912822D01*
X203567167Y-122912822D02*
X203605263Y-122836632D01*
X203605263Y-122836632D02*
X203643358Y-122798537D01*
X203643358Y-122798537D02*
X203719548Y-122760441D01*
X203719548Y-122760441D02*
X203833834Y-122760441D01*
X203833834Y-122760441D02*
X203910025Y-122798537D01*
X203910025Y-122798537D02*
X203948120Y-122836632D01*
X203948120Y-122836632D02*
X203986215Y-122912822D01*
X203986215Y-122912822D02*
X203986215Y-123141394D01*
X203986215Y-123141394D02*
X203948120Y-123217584D01*
X203948120Y-123217584D02*
X203910025Y-123255680D01*
X203910025Y-123255680D02*
X203833834Y-123293775D01*
X203833834Y-123293775D02*
X203719548Y-123293775D01*
X204252882Y-122760441D02*
X204443358Y-123293775D01*
X204633835Y-122760441D02*
X204443358Y-123293775D01*
X204443358Y-123293775D02*
X204367168Y-123484251D01*
X204367168Y-123484251D02*
X204329073Y-123522346D01*
X204329073Y-123522346D02*
X204252882Y-123560441D01*
X205510025Y-123255680D02*
X205624311Y-123293775D01*
X205624311Y-123293775D02*
X205814787Y-123293775D01*
X205814787Y-123293775D02*
X205890978Y-123255680D01*
X205890978Y-123255680D02*
X205929073Y-123217584D01*
X205929073Y-123217584D02*
X205967168Y-123141394D01*
X205967168Y-123141394D02*
X205967168Y-123065203D01*
X205967168Y-123065203D02*
X205929073Y-122989013D01*
X205929073Y-122989013D02*
X205890978Y-122950918D01*
X205890978Y-122950918D02*
X205814787Y-122912822D01*
X205814787Y-122912822D02*
X205662406Y-122874727D01*
X205662406Y-122874727D02*
X205586216Y-122836632D01*
X205586216Y-122836632D02*
X205548121Y-122798537D01*
X205548121Y-122798537D02*
X205510025Y-122722346D01*
X205510025Y-122722346D02*
X205510025Y-122646156D01*
X205510025Y-122646156D02*
X205548121Y-122569965D01*
X205548121Y-122569965D02*
X205586216Y-122531870D01*
X205586216Y-122531870D02*
X205662406Y-122493775D01*
X205662406Y-122493775D02*
X205852883Y-122493775D01*
X205852883Y-122493775D02*
X205967168Y-122531870D01*
X206195740Y-122760441D02*
X206500502Y-122760441D01*
X206310026Y-122493775D02*
X206310026Y-123179489D01*
X206310026Y-123179489D02*
X206348121Y-123255680D01*
X206348121Y-123255680D02*
X206424311Y-123293775D01*
X206424311Y-123293775D02*
X206500502Y-123293775D01*
X206767169Y-123293775D02*
X206767169Y-122760441D01*
X206767169Y-122493775D02*
X206729073Y-122531870D01*
X206729073Y-122531870D02*
X206767169Y-122569965D01*
X206767169Y-122569965D02*
X206805264Y-122531870D01*
X206805264Y-122531870D02*
X206767169Y-122493775D01*
X206767169Y-122493775D02*
X206767169Y-122569965D01*
X207490978Y-123255680D02*
X207414787Y-123293775D01*
X207414787Y-123293775D02*
X207262406Y-123293775D01*
X207262406Y-123293775D02*
X207186216Y-123255680D01*
X207186216Y-123255680D02*
X207148121Y-123217584D01*
X207148121Y-123217584D02*
X207110025Y-123141394D01*
X207110025Y-123141394D02*
X207110025Y-122912822D01*
X207110025Y-122912822D02*
X207148121Y-122836632D01*
X207148121Y-122836632D02*
X207186216Y-122798537D01*
X207186216Y-122798537D02*
X207262406Y-122760441D01*
X207262406Y-122760441D02*
X207414787Y-122760441D01*
X207414787Y-122760441D02*
X207490978Y-122798537D01*
X207833835Y-123293775D02*
X207833835Y-122493775D01*
X207910025Y-122989013D02*
X208138597Y-123293775D01*
X208138597Y-122760441D02*
X207833835Y-123065203D01*
D11*
X231569819Y-130063220D02*
X230569819Y-130063220D01*
X230950771Y-130063220D02*
X230903152Y-129967982D01*
X230903152Y-129967982D02*
X230903152Y-129777506D01*
X230903152Y-129777506D02*
X230950771Y-129682268D01*
X230950771Y-129682268D02*
X230998390Y-129634649D01*
X230998390Y-129634649D02*
X231093628Y-129587030D01*
X231093628Y-129587030D02*
X231379342Y-129587030D01*
X231379342Y-129587030D02*
X231474580Y-129634649D01*
X231474580Y-129634649D02*
X231522200Y-129682268D01*
X231522200Y-129682268D02*
X231569819Y-129777506D01*
X231569819Y-129777506D02*
X231569819Y-129967982D01*
X231569819Y-129967982D02*
X231522200Y-130063220D01*
X230903152Y-129253696D02*
X231569819Y-129015601D01*
X230903152Y-128777506D02*
X231569819Y-129015601D01*
X231569819Y-129015601D02*
X231807914Y-129110839D01*
X231807914Y-129110839D02*
X231855533Y-129158458D01*
X231855533Y-129158458D02*
X231903152Y-129253696D01*
X231569819Y-127063220D02*
X231093628Y-127396553D01*
X231569819Y-127634648D02*
X230569819Y-127634648D01*
X230569819Y-127634648D02*
X230569819Y-127253696D01*
X230569819Y-127253696D02*
X230617438Y-127158458D01*
X230617438Y-127158458D02*
X230665057Y-127110839D01*
X230665057Y-127110839D02*
X230760295Y-127063220D01*
X230760295Y-127063220D02*
X230903152Y-127063220D01*
X230903152Y-127063220D02*
X230998390Y-127110839D01*
X230998390Y-127110839D02*
X231046009Y-127158458D01*
X231046009Y-127158458D02*
X231093628Y-127253696D01*
X231093628Y-127253696D02*
X231093628Y-127634648D01*
X231569819Y-126634648D02*
X230903152Y-126634648D01*
X230569819Y-126634648D02*
X230617438Y-126682267D01*
X230617438Y-126682267D02*
X230665057Y-126634648D01*
X230665057Y-126634648D02*
X230617438Y-126587029D01*
X230617438Y-126587029D02*
X230569819Y-126634648D01*
X230569819Y-126634648D02*
X230665057Y-126634648D01*
X231522200Y-126206077D02*
X231569819Y-126110839D01*
X231569819Y-126110839D02*
X231569819Y-125920363D01*
X231569819Y-125920363D02*
X231522200Y-125825125D01*
X231522200Y-125825125D02*
X231426961Y-125777506D01*
X231426961Y-125777506D02*
X231379342Y-125777506D01*
X231379342Y-125777506D02*
X231284104Y-125825125D01*
X231284104Y-125825125D02*
X231236485Y-125920363D01*
X231236485Y-125920363D02*
X231236485Y-126063220D01*
X231236485Y-126063220D02*
X231188866Y-126158458D01*
X231188866Y-126158458D02*
X231093628Y-126206077D01*
X231093628Y-126206077D02*
X231046009Y-126206077D01*
X231046009Y-126206077D02*
X230950771Y-126158458D01*
X230950771Y-126158458D02*
X230903152Y-126063220D01*
X230903152Y-126063220D02*
X230903152Y-125920363D01*
X230903152Y-125920363D02*
X230950771Y-125825125D01*
X231569819Y-125348934D02*
X230569819Y-125348934D01*
X231569819Y-124920363D02*
X231046009Y-124920363D01*
X231046009Y-124920363D02*
X230950771Y-124967982D01*
X230950771Y-124967982D02*
X230903152Y-125063220D01*
X230903152Y-125063220D02*
X230903152Y-125206077D01*
X230903152Y-125206077D02*
X230950771Y-125301315D01*
X230950771Y-125301315D02*
X230998390Y-125348934D01*
X231569819Y-124015601D02*
X231046009Y-124015601D01*
X231046009Y-124015601D02*
X230950771Y-124063220D01*
X230950771Y-124063220D02*
X230903152Y-124158458D01*
X230903152Y-124158458D02*
X230903152Y-124348934D01*
X230903152Y-124348934D02*
X230950771Y-124444172D01*
X231522200Y-124015601D02*
X231569819Y-124110839D01*
X231569819Y-124110839D02*
X231569819Y-124348934D01*
X231569819Y-124348934D02*
X231522200Y-124444172D01*
X231522200Y-124444172D02*
X231426961Y-124491791D01*
X231426961Y-124491791D02*
X231331723Y-124491791D01*
X231331723Y-124491791D02*
X231236485Y-124444172D01*
X231236485Y-124444172D02*
X231188866Y-124348934D01*
X231188866Y-124348934D02*
X231188866Y-124110839D01*
X231188866Y-124110839D02*
X231141247Y-124015601D01*
X231569819Y-123110839D02*
X231046009Y-123110839D01*
X231046009Y-123110839D02*
X230950771Y-123158458D01*
X230950771Y-123158458D02*
X230903152Y-123253696D01*
X230903152Y-123253696D02*
X230903152Y-123444172D01*
X230903152Y-123444172D02*
X230950771Y-123539410D01*
X231522200Y-123110839D02*
X231569819Y-123206077D01*
X231569819Y-123206077D02*
X231569819Y-123444172D01*
X231569819Y-123444172D02*
X231522200Y-123539410D01*
X231522200Y-123539410D02*
X231426961Y-123587029D01*
X231426961Y-123587029D02*
X231331723Y-123587029D01*
X231331723Y-123587029D02*
X231236485Y-123539410D01*
X231236485Y-123539410D02*
X231188866Y-123444172D01*
X231188866Y-123444172D02*
X231188866Y-123206077D01*
X231188866Y-123206077D02*
X231141247Y-123110839D01*
X230903152Y-122634648D02*
X231569819Y-122634648D01*
X230998390Y-122634648D02*
X230950771Y-122587029D01*
X230950771Y-122587029D02*
X230903152Y-122491791D01*
X230903152Y-122491791D02*
X230903152Y-122348934D01*
X230903152Y-122348934D02*
X230950771Y-122253696D01*
X230950771Y-122253696D02*
X231046009Y-122206077D01*
X231046009Y-122206077D02*
X231569819Y-122206077D01*
X231569819Y-120967981D02*
X230569819Y-120967981D01*
X230569819Y-120967981D02*
X230569819Y-120729886D01*
X230569819Y-120729886D02*
X230617438Y-120587029D01*
X230617438Y-120587029D02*
X230712676Y-120491791D01*
X230712676Y-120491791D02*
X230807914Y-120444172D01*
X230807914Y-120444172D02*
X230998390Y-120396553D01*
X230998390Y-120396553D02*
X231141247Y-120396553D01*
X231141247Y-120396553D02*
X231331723Y-120444172D01*
X231331723Y-120444172D02*
X231426961Y-120491791D01*
X231426961Y-120491791D02*
X231522200Y-120587029D01*
X231522200Y-120587029D02*
X231569819Y-120729886D01*
X231569819Y-120729886D02*
X231569819Y-120967981D01*
X230903152Y-119539410D02*
X231569819Y-119539410D01*
X230903152Y-119967981D02*
X231426961Y-119967981D01*
X231426961Y-119967981D02*
X231522200Y-119920362D01*
X231522200Y-119920362D02*
X231569819Y-119825124D01*
X231569819Y-119825124D02*
X231569819Y-119682267D01*
X231569819Y-119682267D02*
X231522200Y-119587029D01*
X231522200Y-119587029D02*
X231474580Y-119539410D01*
X231569819Y-119063219D02*
X230569819Y-119063219D01*
X231188866Y-118967981D02*
X231569819Y-118682267D01*
X230903152Y-118682267D02*
X231284104Y-119063219D01*
X231569819Y-118253695D02*
X230569819Y-118253695D01*
X231569819Y-117825124D02*
X231046009Y-117825124D01*
X231046009Y-117825124D02*
X230950771Y-117872743D01*
X230950771Y-117872743D02*
X230903152Y-117967981D01*
X230903152Y-117967981D02*
X230903152Y-118110838D01*
X230903152Y-118110838D02*
X230950771Y-118206076D01*
X230950771Y-118206076D02*
X230998390Y-118253695D01*
X231569819Y-116920362D02*
X231046009Y-116920362D01*
X231046009Y-116920362D02*
X230950771Y-116967981D01*
X230950771Y-116967981D02*
X230903152Y-117063219D01*
X230903152Y-117063219D02*
X230903152Y-117253695D01*
X230903152Y-117253695D02*
X230950771Y-117348933D01*
X231522200Y-116920362D02*
X231569819Y-117015600D01*
X231569819Y-117015600D02*
X231569819Y-117253695D01*
X231569819Y-117253695D02*
X231522200Y-117348933D01*
X231522200Y-117348933D02*
X231426961Y-117396552D01*
X231426961Y-117396552D02*
X231331723Y-117396552D01*
X231331723Y-117396552D02*
X231236485Y-117348933D01*
X231236485Y-117348933D02*
X231188866Y-117253695D01*
X231188866Y-117253695D02*
X231188866Y-117015600D01*
X231188866Y-117015600D02*
X231141247Y-116920362D01*
X230903152Y-116444171D02*
X231569819Y-116444171D01*
X230998390Y-116444171D02*
X230950771Y-116396552D01*
X230950771Y-116396552D02*
X230903152Y-116301314D01*
X230903152Y-116301314D02*
X230903152Y-116158457D01*
X230903152Y-116158457D02*
X230950771Y-116063219D01*
X230950771Y-116063219D02*
X231046009Y-116015600D01*
X231046009Y-116015600D02*
X231569819Y-116015600D01*
X231569819Y-115110838D02*
X230569819Y-115110838D01*
X231522200Y-115110838D02*
X231569819Y-115206076D01*
X231569819Y-115206076D02*
X231569819Y-115396552D01*
X231569819Y-115396552D02*
X231522200Y-115491790D01*
X231522200Y-115491790D02*
X231474580Y-115539409D01*
X231474580Y-115539409D02*
X231379342Y-115587028D01*
X231379342Y-115587028D02*
X231093628Y-115587028D01*
X231093628Y-115587028D02*
X230998390Y-115539409D01*
X230998390Y-115539409D02*
X230950771Y-115491790D01*
X230950771Y-115491790D02*
X230903152Y-115396552D01*
X230903152Y-115396552D02*
X230903152Y-115206076D01*
X230903152Y-115206076D02*
X230950771Y-115110838D01*
X231522200Y-114253695D02*
X231569819Y-114348933D01*
X231569819Y-114348933D02*
X231569819Y-114539409D01*
X231569819Y-114539409D02*
X231522200Y-114634647D01*
X231522200Y-114634647D02*
X231426961Y-114682266D01*
X231426961Y-114682266D02*
X231046009Y-114682266D01*
X231046009Y-114682266D02*
X230950771Y-114634647D01*
X230950771Y-114634647D02*
X230903152Y-114539409D01*
X230903152Y-114539409D02*
X230903152Y-114348933D01*
X230903152Y-114348933D02*
X230950771Y-114253695D01*
X230950771Y-114253695D02*
X231046009Y-114206076D01*
X231046009Y-114206076D02*
X231141247Y-114206076D01*
X231141247Y-114206076D02*
X231236485Y-114682266D01*
X244433333Y-125154819D02*
X244433333Y-124154819D01*
X244433333Y-124154819D02*
X244766666Y-124869104D01*
X244766666Y-124869104D02*
X245099999Y-124154819D01*
X245099999Y-124154819D02*
X245099999Y-125154819D01*
X245719047Y-125154819D02*
X245623809Y-125107200D01*
X245623809Y-125107200D02*
X245576190Y-125059580D01*
X245576190Y-125059580D02*
X245528571Y-124964342D01*
X245528571Y-124964342D02*
X245528571Y-124678628D01*
X245528571Y-124678628D02*
X245576190Y-124583390D01*
X245576190Y-124583390D02*
X245623809Y-124535771D01*
X245623809Y-124535771D02*
X245719047Y-124488152D01*
X245719047Y-124488152D02*
X245861904Y-124488152D01*
X245861904Y-124488152D02*
X245957142Y-124535771D01*
X245957142Y-124535771D02*
X246004761Y-124583390D01*
X246004761Y-124583390D02*
X246052380Y-124678628D01*
X246052380Y-124678628D02*
X246052380Y-124964342D01*
X246052380Y-124964342D02*
X246004761Y-125059580D01*
X246004761Y-125059580D02*
X245957142Y-125107200D01*
X245957142Y-125107200D02*
X245861904Y-125154819D01*
X245861904Y-125154819D02*
X245719047Y-125154819D01*
X246909523Y-125154819D02*
X246909523Y-124154819D01*
X246909523Y-125107200D02*
X246814285Y-125154819D01*
X246814285Y-125154819D02*
X246623809Y-125154819D01*
X246623809Y-125154819D02*
X246528571Y-125107200D01*
X246528571Y-125107200D02*
X246480952Y-125059580D01*
X246480952Y-125059580D02*
X246433333Y-124964342D01*
X246433333Y-124964342D02*
X246433333Y-124678628D01*
X246433333Y-124678628D02*
X246480952Y-124583390D01*
X246480952Y-124583390D02*
X246528571Y-124535771D01*
X246528571Y-124535771D02*
X246623809Y-124488152D01*
X246623809Y-124488152D02*
X246814285Y-124488152D01*
X246814285Y-124488152D02*
X246909523Y-124535771D01*
X247766666Y-125107200D02*
X247671428Y-125154819D01*
X247671428Y-125154819D02*
X247480952Y-125154819D01*
X247480952Y-125154819D02*
X247385714Y-125107200D01*
X247385714Y-125107200D02*
X247338095Y-125011961D01*
X247338095Y-125011961D02*
X247338095Y-124631009D01*
X247338095Y-124631009D02*
X247385714Y-124535771D01*
X247385714Y-124535771D02*
X247480952Y-124488152D01*
X247480952Y-124488152D02*
X247671428Y-124488152D01*
X247671428Y-124488152D02*
X247766666Y-124535771D01*
X247766666Y-124535771D02*
X247814285Y-124631009D01*
X247814285Y-124631009D02*
X247814285Y-124726247D01*
X247814285Y-124726247D02*
X247338095Y-124821485D01*
D16*
X202186985Y-95802333D02*
X202906652Y-95802333D01*
X202906652Y-95802333D02*
X202991318Y-95760000D01*
X202991318Y-95760000D02*
X203033652Y-95717666D01*
X203033652Y-95717666D02*
X203075985Y-95633000D01*
X203075985Y-95633000D02*
X203075985Y-95463666D01*
X203075985Y-95463666D02*
X203033652Y-95379000D01*
X203033652Y-95379000D02*
X202991318Y-95336666D01*
X202991318Y-95336666D02*
X202906652Y-95294333D01*
X202906652Y-95294333D02*
X202186985Y-95294333D01*
X203075985Y-94405333D02*
X203075985Y-94913333D01*
X203075985Y-94659333D02*
X202186985Y-94659333D01*
X202186985Y-94659333D02*
X202313985Y-94744000D01*
X202313985Y-94744000D02*
X202398652Y-94828667D01*
X202398652Y-94828667D02*
X202440985Y-94913333D01*
D11*
X197167200Y-99761904D02*
X197214819Y-99619047D01*
X197214819Y-99619047D02*
X197214819Y-99380952D01*
X197214819Y-99380952D02*
X197167200Y-99285714D01*
X197167200Y-99285714D02*
X197119580Y-99238095D01*
X197119580Y-99238095D02*
X197024342Y-99190476D01*
X197024342Y-99190476D02*
X196929104Y-99190476D01*
X196929104Y-99190476D02*
X196833866Y-99238095D01*
X196833866Y-99238095D02*
X196786247Y-99285714D01*
X196786247Y-99285714D02*
X196738628Y-99380952D01*
X196738628Y-99380952D02*
X196691009Y-99571428D01*
X196691009Y-99571428D02*
X196643390Y-99666666D01*
X196643390Y-99666666D02*
X196595771Y-99714285D01*
X196595771Y-99714285D02*
X196500533Y-99761904D01*
X196500533Y-99761904D02*
X196405295Y-99761904D01*
X196405295Y-99761904D02*
X196310057Y-99714285D01*
X196310057Y-99714285D02*
X196262438Y-99666666D01*
X196262438Y-99666666D02*
X196214819Y-99571428D01*
X196214819Y-99571428D02*
X196214819Y-99333333D01*
X196214819Y-99333333D02*
X196262438Y-99190476D01*
X197167200Y-98380952D02*
X197214819Y-98476190D01*
X197214819Y-98476190D02*
X197214819Y-98666666D01*
X197214819Y-98666666D02*
X197167200Y-98761904D01*
X197167200Y-98761904D02*
X197071961Y-98809523D01*
X197071961Y-98809523D02*
X196691009Y-98809523D01*
X196691009Y-98809523D02*
X196595771Y-98761904D01*
X196595771Y-98761904D02*
X196548152Y-98666666D01*
X196548152Y-98666666D02*
X196548152Y-98476190D01*
X196548152Y-98476190D02*
X196595771Y-98380952D01*
X196595771Y-98380952D02*
X196691009Y-98333333D01*
X196691009Y-98333333D02*
X196786247Y-98333333D01*
X196786247Y-98333333D02*
X196881485Y-98809523D01*
X197167200Y-97523809D02*
X197214819Y-97619047D01*
X197214819Y-97619047D02*
X197214819Y-97809523D01*
X197214819Y-97809523D02*
X197167200Y-97904761D01*
X197167200Y-97904761D02*
X197071961Y-97952380D01*
X197071961Y-97952380D02*
X196691009Y-97952380D01*
X196691009Y-97952380D02*
X196595771Y-97904761D01*
X196595771Y-97904761D02*
X196548152Y-97809523D01*
X196548152Y-97809523D02*
X196548152Y-97619047D01*
X196548152Y-97619047D02*
X196595771Y-97523809D01*
X196595771Y-97523809D02*
X196691009Y-97476190D01*
X196691009Y-97476190D02*
X196786247Y-97476190D01*
X196786247Y-97476190D02*
X196881485Y-97952380D01*
X197167200Y-96666666D02*
X197214819Y-96761904D01*
X197214819Y-96761904D02*
X197214819Y-96952380D01*
X197214819Y-96952380D02*
X197167200Y-97047618D01*
X197167200Y-97047618D02*
X197071961Y-97095237D01*
X197071961Y-97095237D02*
X196691009Y-97095237D01*
X196691009Y-97095237D02*
X196595771Y-97047618D01*
X196595771Y-97047618D02*
X196548152Y-96952380D01*
X196548152Y-96952380D02*
X196548152Y-96761904D01*
X196548152Y-96761904D02*
X196595771Y-96666666D01*
X196595771Y-96666666D02*
X196691009Y-96619047D01*
X196691009Y-96619047D02*
X196786247Y-96619047D01*
X196786247Y-96619047D02*
X196881485Y-97095237D01*
X197214819Y-95761904D02*
X196214819Y-95761904D01*
X197167200Y-95761904D02*
X197214819Y-95857142D01*
X197214819Y-95857142D02*
X197214819Y-96047618D01*
X197214819Y-96047618D02*
X197167200Y-96142856D01*
X197167200Y-96142856D02*
X197119580Y-96190475D01*
X197119580Y-96190475D02*
X197024342Y-96238094D01*
X197024342Y-96238094D02*
X196738628Y-96238094D01*
X196738628Y-96238094D02*
X196643390Y-96190475D01*
X196643390Y-96190475D02*
X196595771Y-96142856D01*
X196595771Y-96142856D02*
X196548152Y-96047618D01*
X196548152Y-96047618D02*
X196548152Y-95857142D01*
X196548152Y-95857142D02*
X196595771Y-95761904D01*
X197167200Y-94571427D02*
X197214819Y-94428570D01*
X197214819Y-94428570D02*
X197214819Y-94190475D01*
X197214819Y-94190475D02*
X197167200Y-94095237D01*
X197167200Y-94095237D02*
X197119580Y-94047618D01*
X197119580Y-94047618D02*
X197024342Y-93999999D01*
X197024342Y-93999999D02*
X196929104Y-93999999D01*
X196929104Y-93999999D02*
X196833866Y-94047618D01*
X196833866Y-94047618D02*
X196786247Y-94095237D01*
X196786247Y-94095237D02*
X196738628Y-94190475D01*
X196738628Y-94190475D02*
X196691009Y-94380951D01*
X196691009Y-94380951D02*
X196643390Y-94476189D01*
X196643390Y-94476189D02*
X196595771Y-94523808D01*
X196595771Y-94523808D02*
X196500533Y-94571427D01*
X196500533Y-94571427D02*
X196405295Y-94571427D01*
X196405295Y-94571427D02*
X196310057Y-94523808D01*
X196310057Y-94523808D02*
X196262438Y-94476189D01*
X196262438Y-94476189D02*
X196214819Y-94380951D01*
X196214819Y-94380951D02*
X196214819Y-94142856D01*
X196214819Y-94142856D02*
X196262438Y-93999999D01*
X196548152Y-93714284D02*
X196548152Y-93333332D01*
X196214819Y-93571427D02*
X197071961Y-93571427D01*
X197071961Y-93571427D02*
X197167200Y-93523808D01*
X197167200Y-93523808D02*
X197214819Y-93428570D01*
X197214819Y-93428570D02*
X197214819Y-93333332D01*
X196548152Y-92571427D02*
X197214819Y-92571427D01*
X196548152Y-92999998D02*
X197071961Y-92999998D01*
X197071961Y-92999998D02*
X197167200Y-92952379D01*
X197167200Y-92952379D02*
X197214819Y-92857141D01*
X197214819Y-92857141D02*
X197214819Y-92714284D01*
X197214819Y-92714284D02*
X197167200Y-92619046D01*
X197167200Y-92619046D02*
X197119580Y-92571427D01*
X197214819Y-91666665D02*
X196214819Y-91666665D01*
X197167200Y-91666665D02*
X197214819Y-91761903D01*
X197214819Y-91761903D02*
X197214819Y-91952379D01*
X197214819Y-91952379D02*
X197167200Y-92047617D01*
X197167200Y-92047617D02*
X197119580Y-92095236D01*
X197119580Y-92095236D02*
X197024342Y-92142855D01*
X197024342Y-92142855D02*
X196738628Y-92142855D01*
X196738628Y-92142855D02*
X196643390Y-92095236D01*
X196643390Y-92095236D02*
X196595771Y-92047617D01*
X196595771Y-92047617D02*
X196548152Y-91952379D01*
X196548152Y-91952379D02*
X196548152Y-91761903D01*
X196548152Y-91761903D02*
X196595771Y-91666665D01*
X197214819Y-91190474D02*
X196548152Y-91190474D01*
X196214819Y-91190474D02*
X196262438Y-91238093D01*
X196262438Y-91238093D02*
X196310057Y-91190474D01*
X196310057Y-91190474D02*
X196262438Y-91142855D01*
X196262438Y-91142855D02*
X196214819Y-91190474D01*
X196214819Y-91190474D02*
X196310057Y-91190474D01*
X197214819Y-90571427D02*
X197167200Y-90666665D01*
X197167200Y-90666665D02*
X197119580Y-90714284D01*
X197119580Y-90714284D02*
X197024342Y-90761903D01*
X197024342Y-90761903D02*
X196738628Y-90761903D01*
X196738628Y-90761903D02*
X196643390Y-90714284D01*
X196643390Y-90714284D02*
X196595771Y-90666665D01*
X196595771Y-90666665D02*
X196548152Y-90571427D01*
X196548152Y-90571427D02*
X196548152Y-90428570D01*
X196548152Y-90428570D02*
X196595771Y-90333332D01*
X196595771Y-90333332D02*
X196643390Y-90285713D01*
X196643390Y-90285713D02*
X196738628Y-90238094D01*
X196738628Y-90238094D02*
X197024342Y-90238094D01*
X197024342Y-90238094D02*
X197119580Y-90285713D01*
X197119580Y-90285713D02*
X197167200Y-90333332D01*
X197167200Y-90333332D02*
X197214819Y-90428570D01*
X197214819Y-90428570D02*
X197214819Y-90571427D01*
X200084819Y-96648808D02*
X201084819Y-95982142D01*
X200084819Y-95982142D02*
X201084819Y-96648808D01*
X201084819Y-95601189D02*
X200084819Y-95601189D01*
X200799104Y-95172618D02*
X200799104Y-94696428D01*
X201084819Y-95267856D02*
X200084819Y-94934523D01*
X200084819Y-94934523D02*
X201084819Y-94601190D01*
X200084819Y-94077380D02*
X200084819Y-93886904D01*
X200084819Y-93886904D02*
X200132438Y-93791666D01*
X200132438Y-93791666D02*
X200227676Y-93696428D01*
X200227676Y-93696428D02*
X200418152Y-93648809D01*
X200418152Y-93648809D02*
X200751485Y-93648809D01*
X200751485Y-93648809D02*
X200941961Y-93696428D01*
X200941961Y-93696428D02*
X201037200Y-93791666D01*
X201037200Y-93791666D02*
X201084819Y-93886904D01*
X201084819Y-93886904D02*
X201084819Y-94077380D01*
X201084819Y-94077380D02*
X201037200Y-94172618D01*
X201037200Y-94172618D02*
X200941961Y-94267856D01*
X200941961Y-94267856D02*
X200751485Y-94315475D01*
X200751485Y-94315475D02*
X200418152Y-94315475D01*
X200418152Y-94315475D02*
X200227676Y-94267856D01*
X200227676Y-94267856D02*
X200132438Y-94172618D01*
X200132438Y-94172618D02*
X200084819Y-94077380D01*
X242163333Y-103314819D02*
X241830000Y-102838628D01*
X241591905Y-103314819D02*
X241591905Y-102314819D01*
X241591905Y-102314819D02*
X241972857Y-102314819D01*
X241972857Y-102314819D02*
X242068095Y-102362438D01*
X242068095Y-102362438D02*
X242115714Y-102410057D01*
X242115714Y-102410057D02*
X242163333Y-102505295D01*
X242163333Y-102505295D02*
X242163333Y-102648152D01*
X242163333Y-102648152D02*
X242115714Y-102743390D01*
X242115714Y-102743390D02*
X242068095Y-102791009D01*
X242068095Y-102791009D02*
X241972857Y-102838628D01*
X241972857Y-102838628D02*
X241591905Y-102838628D01*
X242496667Y-102314819D02*
X243115714Y-102314819D01*
X243115714Y-102314819D02*
X242782381Y-102695771D01*
X242782381Y-102695771D02*
X242925238Y-102695771D01*
X242925238Y-102695771D02*
X243020476Y-102743390D01*
X243020476Y-102743390D02*
X243068095Y-102791009D01*
X243068095Y-102791009D02*
X243115714Y-102886247D01*
X243115714Y-102886247D02*
X243115714Y-103124342D01*
X243115714Y-103124342D02*
X243068095Y-103219580D01*
X243068095Y-103219580D02*
X243020476Y-103267200D01*
X243020476Y-103267200D02*
X242925238Y-103314819D01*
X242925238Y-103314819D02*
X242639524Y-103314819D01*
X242639524Y-103314819D02*
X242544286Y-103267200D01*
X242544286Y-103267200D02*
X242496667Y-103219580D01*
X235834819Y-119666666D02*
X235358628Y-119999999D01*
X235834819Y-120238094D02*
X234834819Y-120238094D01*
X234834819Y-120238094D02*
X234834819Y-119857142D01*
X234834819Y-119857142D02*
X234882438Y-119761904D01*
X234882438Y-119761904D02*
X234930057Y-119714285D01*
X234930057Y-119714285D02*
X235025295Y-119666666D01*
X235025295Y-119666666D02*
X235168152Y-119666666D01*
X235168152Y-119666666D02*
X235263390Y-119714285D01*
X235263390Y-119714285D02*
X235311009Y-119761904D01*
X235311009Y-119761904D02*
X235358628Y-119857142D01*
X235358628Y-119857142D02*
X235358628Y-120238094D01*
X235168152Y-118809523D02*
X235834819Y-118809523D01*
X234787200Y-119047618D02*
X235501485Y-119285713D01*
X235501485Y-119285713D02*
X235501485Y-118666666D01*
X242163333Y-108314819D02*
X241830000Y-107838628D01*
X241591905Y-108314819D02*
X241591905Y-107314819D01*
X241591905Y-107314819D02*
X241972857Y-107314819D01*
X241972857Y-107314819D02*
X242068095Y-107362438D01*
X242068095Y-107362438D02*
X242115714Y-107410057D01*
X242115714Y-107410057D02*
X242163333Y-107505295D01*
X242163333Y-107505295D02*
X242163333Y-107648152D01*
X242163333Y-107648152D02*
X242115714Y-107743390D01*
X242115714Y-107743390D02*
X242068095Y-107791009D01*
X242068095Y-107791009D02*
X241972857Y-107838628D01*
X241972857Y-107838628D02*
X241591905Y-107838628D01*
X242544286Y-107410057D02*
X242591905Y-107362438D01*
X242591905Y-107362438D02*
X242687143Y-107314819D01*
X242687143Y-107314819D02*
X242925238Y-107314819D01*
X242925238Y-107314819D02*
X243020476Y-107362438D01*
X243020476Y-107362438D02*
X243068095Y-107410057D01*
X243068095Y-107410057D02*
X243115714Y-107505295D01*
X243115714Y-107505295D02*
X243115714Y-107600533D01*
X243115714Y-107600533D02*
X243068095Y-107743390D01*
X243068095Y-107743390D02*
X242496667Y-108314819D01*
X242496667Y-108314819D02*
X243115714Y-108314819D01*
X235834819Y-131356666D02*
X235358628Y-131689999D01*
X235834819Y-131928094D02*
X234834819Y-131928094D01*
X234834819Y-131928094D02*
X234834819Y-131547142D01*
X234834819Y-131547142D02*
X234882438Y-131451904D01*
X234882438Y-131451904D02*
X234930057Y-131404285D01*
X234930057Y-131404285D02*
X235025295Y-131356666D01*
X235025295Y-131356666D02*
X235168152Y-131356666D01*
X235168152Y-131356666D02*
X235263390Y-131404285D01*
X235263390Y-131404285D02*
X235311009Y-131451904D01*
X235311009Y-131451904D02*
X235358628Y-131547142D01*
X235358628Y-131547142D02*
X235358628Y-131928094D01*
X234834819Y-130451904D02*
X234834819Y-130928094D01*
X234834819Y-130928094D02*
X235311009Y-130975713D01*
X235311009Y-130975713D02*
X235263390Y-130928094D01*
X235263390Y-130928094D02*
X235215771Y-130832856D01*
X235215771Y-130832856D02*
X235215771Y-130594761D01*
X235215771Y-130594761D02*
X235263390Y-130499523D01*
X235263390Y-130499523D02*
X235311009Y-130451904D01*
X235311009Y-130451904D02*
X235406247Y-130404285D01*
X235406247Y-130404285D02*
X235644342Y-130404285D01*
X235644342Y-130404285D02*
X235739580Y-130451904D01*
X235739580Y-130451904D02*
X235787200Y-130499523D01*
X235787200Y-130499523D02*
X235834819Y-130594761D01*
X235834819Y-130594761D02*
X235834819Y-130832856D01*
X235834819Y-130832856D02*
X235787200Y-130928094D01*
X235787200Y-130928094D02*
X235739580Y-130975713D01*
X242163333Y-113314819D02*
X241830000Y-112838628D01*
X241591905Y-113314819D02*
X241591905Y-112314819D01*
X241591905Y-112314819D02*
X241972857Y-112314819D01*
X241972857Y-112314819D02*
X242068095Y-112362438D01*
X242068095Y-112362438D02*
X242115714Y-112410057D01*
X242115714Y-112410057D02*
X242163333Y-112505295D01*
X242163333Y-112505295D02*
X242163333Y-112648152D01*
X242163333Y-112648152D02*
X242115714Y-112743390D01*
X242115714Y-112743390D02*
X242068095Y-112791009D01*
X242068095Y-112791009D02*
X241972857Y-112838628D01*
X241972857Y-112838628D02*
X241591905Y-112838628D01*
X243115714Y-113314819D02*
X242544286Y-113314819D01*
X242830000Y-113314819D02*
X242830000Y-112314819D01*
X242830000Y-112314819D02*
X242734762Y-112457676D01*
X242734762Y-112457676D02*
X242639524Y-112552914D01*
X242639524Y-112552914D02*
X242544286Y-112600533D01*
X243576190Y-136654819D02*
X243576190Y-135654819D01*
X243576190Y-135654819D02*
X243957142Y-135654819D01*
X243957142Y-135654819D02*
X244052380Y-135702438D01*
X244052380Y-135702438D02*
X244099999Y-135750057D01*
X244099999Y-135750057D02*
X244147618Y-135845295D01*
X244147618Y-135845295D02*
X244147618Y-135988152D01*
X244147618Y-135988152D02*
X244099999Y-136083390D01*
X244099999Y-136083390D02*
X244052380Y-136131009D01*
X244052380Y-136131009D02*
X243957142Y-136178628D01*
X243957142Y-136178628D02*
X243576190Y-136178628D01*
X244576190Y-136654819D02*
X244576190Y-135988152D01*
X244576190Y-136178628D02*
X244623809Y-136083390D01*
X244623809Y-136083390D02*
X244671428Y-136035771D01*
X244671428Y-136035771D02*
X244766666Y-135988152D01*
X244766666Y-135988152D02*
X244861904Y-135988152D01*
X245576190Y-136607200D02*
X245480952Y-136654819D01*
X245480952Y-136654819D02*
X245290476Y-136654819D01*
X245290476Y-136654819D02*
X245195238Y-136607200D01*
X245195238Y-136607200D02*
X245147619Y-136511961D01*
X245147619Y-136511961D02*
X245147619Y-136131009D01*
X245147619Y-136131009D02*
X245195238Y-136035771D01*
X245195238Y-136035771D02*
X245290476Y-135988152D01*
X245290476Y-135988152D02*
X245480952Y-135988152D01*
X245480952Y-135988152D02*
X245576190Y-136035771D01*
X245576190Y-136035771D02*
X245623809Y-136131009D01*
X245623809Y-136131009D02*
X245623809Y-136226247D01*
X245623809Y-136226247D02*
X245147619Y-136321485D01*
X246004762Y-136607200D02*
X246100000Y-136654819D01*
X246100000Y-136654819D02*
X246290476Y-136654819D01*
X246290476Y-136654819D02*
X246385714Y-136607200D01*
X246385714Y-136607200D02*
X246433333Y-136511961D01*
X246433333Y-136511961D02*
X246433333Y-136464342D01*
X246433333Y-136464342D02*
X246385714Y-136369104D01*
X246385714Y-136369104D02*
X246290476Y-136321485D01*
X246290476Y-136321485D02*
X246147619Y-136321485D01*
X246147619Y-136321485D02*
X246052381Y-136273866D01*
X246052381Y-136273866D02*
X246004762Y-136178628D01*
X246004762Y-136178628D02*
X246004762Y-136131009D01*
X246004762Y-136131009D02*
X246052381Y-136035771D01*
X246052381Y-136035771D02*
X246147619Y-135988152D01*
X246147619Y-135988152D02*
X246290476Y-135988152D01*
X246290476Y-135988152D02*
X246385714Y-136035771D01*
X247242857Y-136607200D02*
X247147619Y-136654819D01*
X247147619Y-136654819D02*
X246957143Y-136654819D01*
X246957143Y-136654819D02*
X246861905Y-136607200D01*
X246861905Y-136607200D02*
X246814286Y-136511961D01*
X246814286Y-136511961D02*
X246814286Y-136131009D01*
X246814286Y-136131009D02*
X246861905Y-136035771D01*
X246861905Y-136035771D02*
X246957143Y-135988152D01*
X246957143Y-135988152D02*
X247147619Y-135988152D01*
X247147619Y-135988152D02*
X247242857Y-136035771D01*
X247242857Y-136035771D02*
X247290476Y-136131009D01*
X247290476Y-136131009D02*
X247290476Y-136226247D01*
X247290476Y-136226247D02*
X246814286Y-136321485D01*
X247576191Y-135988152D02*
X247957143Y-135988152D01*
X247719048Y-135654819D02*
X247719048Y-136511961D01*
X247719048Y-136511961D02*
X247766667Y-136607200D01*
X247766667Y-136607200D02*
X247861905Y-136654819D01*
X247861905Y-136654819D02*
X247957143Y-136654819D01*
X248242858Y-136607200D02*
X248338096Y-136654819D01*
X248338096Y-136654819D02*
X248528572Y-136654819D01*
X248528572Y-136654819D02*
X248623810Y-136607200D01*
X248623810Y-136607200D02*
X248671429Y-136511961D01*
X248671429Y-136511961D02*
X248671429Y-136464342D01*
X248671429Y-136464342D02*
X248623810Y-136369104D01*
X248623810Y-136369104D02*
X248528572Y-136321485D01*
X248528572Y-136321485D02*
X248385715Y-136321485D01*
X248385715Y-136321485D02*
X248290477Y-136273866D01*
X248290477Y-136273866D02*
X248242858Y-136178628D01*
X248242858Y-136178628D02*
X248242858Y-136131009D01*
X248242858Y-136131009D02*
X248290477Y-136035771D01*
X248290477Y-136035771D02*
X248385715Y-135988152D01*
X248385715Y-135988152D02*
X248528572Y-135988152D01*
X248528572Y-135988152D02*
X248623810Y-136035771D01*
X226994819Y-105989594D02*
X225994819Y-105989594D01*
X225994819Y-105989594D02*
X225994819Y-105751499D01*
X225994819Y-105751499D02*
X226042438Y-105608642D01*
X226042438Y-105608642D02*
X226137676Y-105513404D01*
X226137676Y-105513404D02*
X226232914Y-105465785D01*
X226232914Y-105465785D02*
X226423390Y-105418166D01*
X226423390Y-105418166D02*
X226566247Y-105418166D01*
X226566247Y-105418166D02*
X226756723Y-105465785D01*
X226756723Y-105465785D02*
X226851961Y-105513404D01*
X226851961Y-105513404D02*
X226947200Y-105608642D01*
X226947200Y-105608642D02*
X226994819Y-105751499D01*
X226994819Y-105751499D02*
X226994819Y-105989594D01*
X226994819Y-104465785D02*
X226994819Y-105037213D01*
X226994819Y-104751499D02*
X225994819Y-104751499D01*
X225994819Y-104751499D02*
X226137676Y-104846737D01*
X226137676Y-104846737D02*
X226232914Y-104941975D01*
X226232914Y-104941975D02*
X226280533Y-105037213D01*
X189416666Y-113954819D02*
X189416666Y-114669104D01*
X189416666Y-114669104D02*
X189369047Y-114811961D01*
X189369047Y-114811961D02*
X189273809Y-114907200D01*
X189273809Y-114907200D02*
X189130952Y-114954819D01*
X189130952Y-114954819D02*
X189035714Y-114954819D01*
X189845238Y-114050057D02*
X189892857Y-114002438D01*
X189892857Y-114002438D02*
X189988095Y-113954819D01*
X189988095Y-113954819D02*
X190226190Y-113954819D01*
X190226190Y-113954819D02*
X190321428Y-114002438D01*
X190321428Y-114002438D02*
X190369047Y-114050057D01*
X190369047Y-114050057D02*
X190416666Y-114145295D01*
X190416666Y-114145295D02*
X190416666Y-114240533D01*
X190416666Y-114240533D02*
X190369047Y-114383390D01*
X190369047Y-114383390D02*
X189797619Y-114954819D01*
X189797619Y-114954819D02*
X190416666Y-114954819D01*
X217416666Y-95954819D02*
X217416666Y-96669104D01*
X217416666Y-96669104D02*
X217369047Y-96811961D01*
X217369047Y-96811961D02*
X217273809Y-96907200D01*
X217273809Y-96907200D02*
X217130952Y-96954819D01*
X217130952Y-96954819D02*
X217035714Y-96954819D01*
X218416666Y-96954819D02*
X217845238Y-96954819D01*
X218130952Y-96954819D02*
X218130952Y-95954819D01*
X218130952Y-95954819D02*
X218035714Y-96097676D01*
X218035714Y-96097676D02*
X217940476Y-96192914D01*
X217940476Y-96192914D02*
X217845238Y-96240533D01*
D17*
%TO.C,Mode*%
X242500000Y-118750000D02*
X242500000Y-120250000D01*
X243750000Y-122750000D02*
X248250000Y-122750000D01*
X248250000Y-116250000D02*
X243750000Y-116250000D01*
X249500000Y-120250000D02*
X249500000Y-118750000D01*
D18*
%TO.C,logo*%
G36*
X224864969Y-125194264D02*
G01*
X224912477Y-125235134D01*
X224948935Y-125284877D01*
X224960422Y-125322041D01*
X224942353Y-125341661D01*
X224897073Y-125366551D01*
X224876758Y-125375138D01*
X224793094Y-125408002D01*
X224767274Y-125315779D01*
X224752383Y-125241129D01*
X224760978Y-125197632D01*
X224795446Y-125179122D01*
X224820902Y-125177300D01*
X224864969Y-125194264D01*
G37*
G36*
X224778524Y-129648393D02*
G01*
X224785160Y-129648991D01*
X224868038Y-129657720D01*
X224915561Y-129670994D01*
X224934975Y-129698149D01*
X224933524Y-129748523D01*
X224920090Y-129822881D01*
X224906835Y-129892176D01*
X224749793Y-129782725D01*
X224676705Y-129728367D01*
X224628642Y-129685402D01*
X224610599Y-129658500D01*
X224612042Y-129653984D01*
X224641572Y-129646356D01*
X224701211Y-129644373D01*
X224778524Y-129648393D01*
G37*
G36*
X225167430Y-125059676D02*
G01*
X225218701Y-125091824D01*
X225263881Y-125147607D01*
X225291981Y-125213691D01*
X225295104Y-125244982D01*
X225275349Y-125265118D01*
X225223429Y-125282897D01*
X225217090Y-125284621D01*
X225141721Y-125296208D01*
X225093577Y-125278404D01*
X225064740Y-125226376D01*
X225055015Y-125185629D01*
X225053861Y-125114140D01*
X225077331Y-125069925D01*
X225117747Y-125052073D01*
X225167430Y-125059676D01*
G37*
G36*
X224661644Y-123742817D02*
G01*
X224707051Y-123790554D01*
X224770200Y-123861222D01*
X224846617Y-123949510D01*
X224931830Y-124050110D01*
X225021367Y-124157712D01*
X225110754Y-124267006D01*
X225195519Y-124372683D01*
X225271188Y-124469433D01*
X225309960Y-124520451D01*
X225581044Y-124898995D01*
X225817002Y-125263935D01*
X226017277Y-125614188D01*
X226181315Y-125948671D01*
X226308558Y-126266298D01*
X226398451Y-126565987D01*
X226427321Y-126698654D01*
X226443046Y-126814029D01*
X226453833Y-126962194D01*
X226459571Y-127133343D01*
X226460150Y-127317668D01*
X226455457Y-127505364D01*
X226445382Y-127686623D01*
X226439364Y-127760170D01*
X226414243Y-128003135D01*
X226383370Y-128236303D01*
X226345188Y-128467050D01*
X226298137Y-128702750D01*
X226240658Y-128950779D01*
X226171192Y-129218512D01*
X226088179Y-129513324D01*
X226020239Y-129742870D01*
X225922740Y-130071226D01*
X225838965Y-130363268D01*
X225770799Y-130612969D01*
X225768061Y-130622999D01*
X225709180Y-130854422D01*
X225661472Y-131061538D01*
X225624085Y-131248352D01*
X225596171Y-131418864D01*
X225576878Y-131577079D01*
X225565358Y-131726998D01*
X225560759Y-131872624D01*
X225560591Y-131907097D01*
X225560591Y-132201142D01*
X225733438Y-132268799D01*
X225813594Y-132299401D01*
X225878627Y-132322794D01*
X225918193Y-132335313D01*
X225924437Y-132336456D01*
X225943342Y-132318815D01*
X225971744Y-132273718D01*
X225989967Y-132238586D01*
X226062432Y-132133892D01*
X226162067Y-132062164D01*
X226287930Y-132024011D01*
X226331903Y-132019112D01*
X226415766Y-132018399D01*
X226494906Y-132026379D01*
X226531205Y-132034834D01*
X226611338Y-132075969D01*
X226686414Y-132139301D01*
X226744366Y-132212578D01*
X226772476Y-132279759D01*
X226785926Y-132351453D01*
X226864524Y-132310438D01*
X226964604Y-132278861D01*
X227081497Y-132273334D01*
X227198938Y-132292635D01*
X227300664Y-132335544D01*
X227313912Y-132344183D01*
X227374325Y-132396267D01*
X227423193Y-132455814D01*
X227435115Y-132476694D01*
X227469419Y-132548985D01*
X227570659Y-132494615D01*
X227686059Y-132453052D01*
X227808212Y-132443681D01*
X227927732Y-132464033D01*
X228035233Y-132511635D01*
X228121330Y-132584017D01*
X228165311Y-132651164D01*
X228189937Y-132749122D01*
X228172727Y-132846904D01*
X228114497Y-132940024D01*
X228112352Y-132942445D01*
X228061232Y-132989193D01*
X228007272Y-133008238D01*
X227963459Y-133010672D01*
X227908932Y-133011322D01*
X227878099Y-133012951D01*
X227875527Y-133013669D01*
X227891559Y-133026115D01*
X227932104Y-133054131D01*
X227955907Y-133070085D01*
X228105600Y-133186337D01*
X228238469Y-133321944D01*
X228342166Y-133464196D01*
X228347540Y-133473264D01*
X228386158Y-133544109D01*
X228412032Y-133607728D01*
X228426589Y-133674289D01*
X228431258Y-133753957D01*
X228427465Y-133856898D01*
X228418138Y-133976203D01*
X228384667Y-134261376D01*
X228335244Y-134543055D01*
X228271834Y-134814412D01*
X228196400Y-135068617D01*
X228110907Y-135298844D01*
X228017320Y-135498262D01*
X227945165Y-135620241D01*
X227905688Y-135672093D01*
X227867483Y-135695773D01*
X227813098Y-135701673D01*
X227808411Y-135701688D01*
X227725556Y-135701688D01*
X227800827Y-135596918D01*
X227888847Y-135453495D01*
X227973998Y-135275305D01*
X228053747Y-135070446D01*
X228125562Y-134847020D01*
X228186908Y-134613125D01*
X228235253Y-134376862D01*
X228268064Y-134146330D01*
X228274168Y-134083376D01*
X228281009Y-133999012D01*
X228282647Y-133950546D01*
X228277752Y-133931185D01*
X228264994Y-133934134D01*
X228247763Y-133948409D01*
X228174470Y-133997333D01*
X228071680Y-134044662D01*
X227952617Y-134085280D01*
X227830507Y-134114071D01*
X227811223Y-134117292D01*
X227630225Y-134132439D01*
X227554008Y-134130699D01*
X227419106Y-134127619D01*
X227184981Y-134104116D01*
X226934961Y-134063213D01*
X226676159Y-134006194D01*
X226415688Y-133934341D01*
X226160659Y-133848938D01*
X226018402Y-133793849D01*
X225847868Y-133719478D01*
X225709499Y-133647499D01*
X225593418Y-133571912D01*
X225489750Y-133486715D01*
X225448465Y-133447539D01*
X225390622Y-133393149D01*
X225345148Y-133355107D01*
X225319647Y-133339613D01*
X225316981Y-133340366D01*
X225307766Y-133365527D01*
X225289034Y-133422713D01*
X225263683Y-133502918D01*
X225239955Y-133579663D01*
X225144140Y-133865183D01*
X225027174Y-134168966D01*
X224894403Y-134479167D01*
X224751176Y-134783938D01*
X224602838Y-135071433D01*
X224454737Y-135329806D01*
X224436960Y-135358735D01*
X224360820Y-135480410D01*
X224302272Y-135569863D01*
X224257087Y-135631770D01*
X224221037Y-135670811D01*
X224189896Y-135691664D01*
X224159435Y-135699006D01*
X224130304Y-135698056D01*
X224061974Y-135690971D01*
X224241385Y-135416650D01*
X224357434Y-135229385D01*
X224480017Y-135014204D01*
X224602416Y-134783963D01*
X224717915Y-134551515D01*
X224819798Y-134329715D01*
X224865229Y-134222701D01*
X224942266Y-134027552D01*
X225016421Y-133825743D01*
X225085302Y-133624818D01*
X225146516Y-133432322D01*
X225197673Y-133255799D01*
X225236379Y-133102794D01*
X225256881Y-132998029D01*
X225391953Y-132998029D01*
X225404617Y-133134014D01*
X225457908Y-133262102D01*
X225551126Y-133378476D01*
X225623417Y-133439254D01*
X225771749Y-133533050D01*
X225955012Y-133624637D01*
X226165271Y-133711678D01*
X226394587Y-133791836D01*
X226635024Y-133862775D01*
X226878644Y-133922158D01*
X227117511Y-133967648D01*
X227343687Y-133996909D01*
X227549235Y-134007604D01*
X227554008Y-134007614D01*
X227736018Y-133997197D01*
X227900664Y-133967079D01*
X228042172Y-133919293D01*
X228154773Y-133855870D01*
X228232692Y-133778844D01*
X228241474Y-133765525D01*
X228270417Y-133687295D01*
X228262488Y-133602079D01*
X228217074Y-133503639D01*
X228215418Y-133500897D01*
X228178193Y-133452155D01*
X228118816Y-133387336D01*
X228047732Y-133316530D01*
X227975386Y-133249825D01*
X227912223Y-133197311D01*
X227875089Y-133172171D01*
X227844160Y-133162365D01*
X227827927Y-133183249D01*
X227821392Y-133209444D01*
X227800633Y-133301902D01*
X227782740Y-133359854D01*
X227764398Y-133391217D01*
X227742296Y-133403908D01*
X227739783Y-133404448D01*
X227692769Y-133394688D01*
X227666667Y-133378333D01*
X227630581Y-133355723D01*
X227561542Y-133294205D01*
X227493978Y-133216783D01*
X227477983Y-133195291D01*
X227427824Y-133134107D01*
X227372659Y-133090093D01*
X227333330Y-133070262D01*
X227296936Y-133051911D01*
X227261213Y-133037236D01*
X227177036Y-133006881D01*
X227168186Y-133005382D01*
X227124036Y-132997901D01*
X227095332Y-133011940D01*
X227084042Y-133050646D01*
X227082775Y-133079913D01*
X227071551Y-133155293D01*
X227042939Y-133210916D01*
X227002813Y-133236190D01*
X226995841Y-133236710D01*
X226949478Y-133219648D01*
X226937891Y-133210857D01*
X226889827Y-133174390D01*
X226825101Y-133109828D01*
X226763511Y-133034856D01*
X226713269Y-132958364D01*
X226686755Y-132902021D01*
X226658947Y-132834990D01*
X226626852Y-132793773D01*
X226624433Y-132792309D01*
X226575738Y-132762839D01*
X226539585Y-132746856D01*
X226479046Y-132722882D01*
X226436994Y-132709244D01*
X226425036Y-132708073D01*
X226417601Y-132731152D01*
X226405742Y-132783202D01*
X226396932Y-132827386D01*
X226380294Y-132906762D01*
X226364674Y-132952614D01*
X226345118Y-132973869D01*
X226316675Y-132979453D01*
X226312554Y-132979494D01*
X226261478Y-132961560D01*
X226251984Y-132954253D01*
X226199298Y-132913706D01*
X226133046Y-132844861D01*
X226069752Y-132763949D01*
X226016446Y-132679899D01*
X225980159Y-132601637D01*
X225967848Y-132541821D01*
X225948994Y-132511716D01*
X225901167Y-132493412D01*
X225837465Y-132490492D01*
X225801730Y-132496410D01*
X225717369Y-132530620D01*
X225625474Y-132588245D01*
X225542781Y-132657361D01*
X225491299Y-132717627D01*
X225420614Y-132857961D01*
X225391953Y-132998029D01*
X225256881Y-132998029D01*
X225260243Y-132980852D01*
X225261369Y-132973163D01*
X225304454Y-132798251D01*
X225380627Y-132650232D01*
X225490736Y-132527742D01*
X225579392Y-132462127D01*
X225633379Y-132426838D01*
X225633753Y-132426489D01*
X226075038Y-132426489D01*
X226085175Y-132485751D01*
X226111356Y-132564696D01*
X226147270Y-132648882D01*
X226186604Y-132723869D01*
X226223046Y-132775215D01*
X226230583Y-132782353D01*
X226251984Y-132795694D01*
X226267301Y-132789178D01*
X226279757Y-132756341D01*
X226292578Y-132690718D01*
X226293701Y-132683704D01*
X226760945Y-132683704D01*
X226771082Y-132742966D01*
X226797263Y-132821911D01*
X226833177Y-132906098D01*
X226872511Y-132981085D01*
X226908953Y-133032431D01*
X226916491Y-133039568D01*
X226937891Y-133052909D01*
X226953208Y-133046393D01*
X226965665Y-133013556D01*
X226978485Y-132947933D01*
X226986203Y-132899746D01*
X226998456Y-132855145D01*
X227217123Y-132855145D01*
X227227054Y-132867194D01*
X227232489Y-132870380D01*
X227286609Y-132895011D01*
X227333330Y-132906636D01*
X227359329Y-132902444D01*
X227361097Y-132897494D01*
X227343932Y-132873023D01*
X227327192Y-132863897D01*
X227286382Y-132855181D01*
X227489721Y-132855181D01*
X227499858Y-132914443D01*
X227526040Y-132993388D01*
X227561953Y-133077574D01*
X227601287Y-133152561D01*
X227637729Y-133203907D01*
X227645267Y-133211045D01*
X227666667Y-133224386D01*
X227681984Y-133217870D01*
X227694441Y-133185033D01*
X227707261Y-133119410D01*
X227714979Y-133071222D01*
X227734935Y-132998580D01*
X227766340Y-132934249D01*
X227773547Y-132924175D01*
X227810562Y-132886825D01*
X227852533Y-132875025D01*
X227900421Y-132878641D01*
X227960043Y-132881341D01*
X227998917Y-132864168D01*
X228025989Y-132834768D01*
X228056046Y-132768668D01*
X228043511Y-132700171D01*
X228017587Y-132660014D01*
X227965767Y-132620731D01*
X227888166Y-132589840D01*
X227801812Y-132573480D01*
X227774401Y-132572317D01*
X227671176Y-132591972D01*
X227584452Y-132645595D01*
X227521973Y-132725493D01*
X227491477Y-132823977D01*
X227489721Y-132855181D01*
X227286382Y-132855181D01*
X227277476Y-132853279D01*
X227246812Y-132851539D01*
X227217123Y-132855145D01*
X226998456Y-132855145D01*
X227003551Y-132836597D01*
X227153896Y-132836597D01*
X227156838Y-132849340D01*
X227168186Y-132850887D01*
X227185829Y-132843044D01*
X227182475Y-132836597D01*
X227157037Y-132834032D01*
X227153896Y-132836597D01*
X227003551Y-132836597D01*
X227006159Y-132827104D01*
X227037563Y-132762772D01*
X227044771Y-132752698D01*
X227081785Y-132715348D01*
X227123757Y-132703548D01*
X227171645Y-132707164D01*
X227231266Y-132709864D01*
X227270141Y-132692691D01*
X227297213Y-132663291D01*
X227327270Y-132597191D01*
X227314734Y-132528695D01*
X227288811Y-132488537D01*
X227236991Y-132449255D01*
X227159389Y-132418363D01*
X227073036Y-132402004D01*
X227045625Y-132400840D01*
X226942399Y-132420495D01*
X226855676Y-132474118D01*
X226793196Y-132554017D01*
X226762701Y-132652500D01*
X226760945Y-132683704D01*
X226293701Y-132683704D01*
X226300296Y-132642530D01*
X226313037Y-132596153D01*
X226571411Y-132596153D01*
X226586015Y-132612941D01*
X226589486Y-132615128D01*
X226624433Y-132620287D01*
X226635948Y-132609237D01*
X226644082Y-132579422D01*
X226618834Y-132574590D01*
X226596335Y-132581459D01*
X226571411Y-132596153D01*
X226313037Y-132596153D01*
X226320252Y-132569888D01*
X226351656Y-132505557D01*
X226358864Y-132495483D01*
X226395878Y-132458133D01*
X226437850Y-132446333D01*
X226485738Y-132449949D01*
X226545359Y-132452649D01*
X226584234Y-132435476D01*
X226611305Y-132406076D01*
X226641362Y-132339976D01*
X226628827Y-132271479D01*
X226602904Y-132231322D01*
X226551084Y-132192039D01*
X226473482Y-132161148D01*
X226387128Y-132144788D01*
X226359718Y-132143625D01*
X226256492Y-132163280D01*
X226169769Y-132216903D01*
X226107289Y-132296801D01*
X226076794Y-132395285D01*
X226075038Y-132426489D01*
X225633753Y-132426489D01*
X225655112Y-132406543D01*
X225648729Y-132393580D01*
X225622682Y-132381971D01*
X225423125Y-132303241D01*
X225218594Y-132221495D01*
X225050312Y-132153463D01*
X225013087Y-132138414D01*
X224810598Y-132055677D01*
X224615123Y-131974966D01*
X224430658Y-131897959D01*
X224261199Y-131826337D01*
X224110740Y-131761781D01*
X223983279Y-131705971D01*
X223882810Y-131660586D01*
X223813329Y-131627307D01*
X223778832Y-131607815D01*
X223776367Y-131605583D01*
X223744717Y-131550578D01*
X223710672Y-131463350D01*
X223677413Y-131354178D01*
X223648122Y-131233344D01*
X223628458Y-131127488D01*
X223615661Y-130995827D01*
X223615434Y-130985302D01*
X224038734Y-130985302D01*
X224046077Y-131026716D01*
X224072015Y-131060174D01*
X224122413Y-131088937D01*
X224203134Y-131116263D01*
X224320044Y-131145413D01*
X224331437Y-131147989D01*
X224453337Y-131177505D01*
X224584155Y-131212578D01*
X224703978Y-131247736D01*
X224758709Y-131265374D01*
X224888615Y-131305649D01*
X224984458Y-131325979D01*
X225050312Y-131326006D01*
X225090248Y-131305369D01*
X225108338Y-131263709D01*
X225110464Y-131234292D01*
X225089072Y-131159050D01*
X225024906Y-131086468D01*
X224917978Y-131016559D01*
X224906835Y-131010699D01*
X224834099Y-130972433D01*
X224793499Y-130943768D01*
X224779830Y-130913246D01*
X224787888Y-130869409D01*
X224812027Y-130802000D01*
X224838438Y-130733346D01*
X224860610Y-130681526D01*
X224872283Y-130659959D01*
X224898771Y-130656511D01*
X224953864Y-130662929D01*
X225014320Y-130675272D01*
X225142336Y-130700101D01*
X225233928Y-130704586D01*
X225290391Y-130688754D01*
X225299088Y-130681705D01*
X225320770Y-130651189D01*
X225318942Y-130616274D01*
X225292416Y-130562793D01*
X225290243Y-130559088D01*
X225288553Y-130556207D01*
X225263835Y-130523756D01*
X225226857Y-130493605D01*
X225172565Y-130463595D01*
X225095902Y-130431565D01*
X224991813Y-130395356D01*
X224855242Y-130352807D01*
X224717558Y-130312276D01*
X224554908Y-130266840D01*
X224428351Y-130236067D01*
X224333669Y-130220042D01*
X224266642Y-130218846D01*
X224223050Y-130232560D01*
X224198676Y-130261268D01*
X224189299Y-130305052D01*
X224188776Y-130322569D01*
X224194899Y-130363845D01*
X224217335Y-130400333D01*
X224262187Y-130437185D01*
X224335558Y-130479549D01*
X224430006Y-130526167D01*
X224505024Y-130563552D01*
X224562402Y-130595494D01*
X224593177Y-130616863D01*
X224596034Y-130621210D01*
X224588384Y-130648541D01*
X224568675Y-130701848D01*
X224550109Y-130747913D01*
X224521435Y-130811033D01*
X224498594Y-130841453D01*
X224473958Y-130847171D01*
X224459012Y-130843410D01*
X224375864Y-130829011D01*
X224284697Y-130833958D01*
X224195467Y-130854888D01*
X224118131Y-130888441D01*
X224062646Y-130931254D01*
X224038970Y-130979966D01*
X224038734Y-130985302D01*
X223615434Y-130985302D01*
X223612176Y-130834029D01*
X223617387Y-130653663D01*
X223630681Y-130466296D01*
X223651444Y-130283496D01*
X223679060Y-130116830D01*
X223683208Y-130096541D01*
X223736679Y-129863944D01*
X223799000Y-129637581D01*
X223801309Y-129630458D01*
X224298505Y-129630458D01*
X224318731Y-129698774D01*
X224325317Y-129709477D01*
X224354829Y-129736430D01*
X224415115Y-129778484D01*
X224498896Y-129831001D01*
X224598891Y-129889340D01*
X224664565Y-129925708D01*
X224782270Y-129989910D01*
X224899692Y-130054535D01*
X225005907Y-130113532D01*
X225089992Y-130160850D01*
X225116585Y-130176077D01*
X225217551Y-130228119D01*
X225290243Y-130250434D01*
X225337128Y-130243167D01*
X225360676Y-130206468D01*
X225363436Y-130190837D01*
X225357176Y-130143713D01*
X225322272Y-130095151D01*
X225293027Y-130067588D01*
X225243616Y-130027732D01*
X225205822Y-130003496D01*
X225195457Y-130000085D01*
X225182838Y-129981404D01*
X225176428Y-129935501D01*
X225176318Y-129877582D01*
X225182600Y-129822855D01*
X225194178Y-129788281D01*
X225211885Y-129772532D01*
X225243210Y-129772389D01*
X225299883Y-129788372D01*
X225315558Y-129793640D01*
X225414125Y-129820978D01*
X225486073Y-129827610D01*
X225524866Y-129814319D01*
X225539782Y-129772204D01*
X225527478Y-129715345D01*
X225491642Y-129658707D01*
X225484756Y-129651447D01*
X225423078Y-129611277D01*
X225327197Y-129574866D01*
X225309609Y-129570284D01*
X225205690Y-129543211D01*
X225067134Y-129517310D01*
X224920105Y-129498159D01*
X224773181Y-129486757D01*
X224634938Y-129484099D01*
X224513954Y-129491184D01*
X224418805Y-129509008D01*
X224381688Y-129523199D01*
X224319784Y-129570961D01*
X224298505Y-129630458D01*
X223801309Y-129630458D01*
X223873123Y-129408949D01*
X223961999Y-129169542D01*
X224068580Y-128910857D01*
X224072197Y-128902702D01*
X224557143Y-128902702D01*
X224571097Y-128992780D01*
X224605594Y-129068922D01*
X224677629Y-129146487D01*
X224785944Y-129218697D01*
X224923971Y-129281564D01*
X224997320Y-129306774D01*
X225158759Y-129344763D01*
X225309609Y-129356592D01*
X225444368Y-129343294D01*
X225557533Y-129305902D01*
X225643601Y-129245449D01*
X225691447Y-129176479D01*
X225721954Y-129098114D01*
X225729535Y-129038446D01*
X225715395Y-128980740D01*
X225706958Y-128961002D01*
X225670049Y-128915720D01*
X225618499Y-128889917D01*
X225569440Y-128891435D01*
X225562639Y-128894937D01*
X225544187Y-128923534D01*
X225528345Y-128975250D01*
X225527146Y-128981292D01*
X225495260Y-129062675D01*
X225434045Y-129113974D01*
X225363094Y-129135141D01*
X225272902Y-129137026D01*
X225166691Y-129119898D01*
X225055465Y-129087804D01*
X224950229Y-129044792D01*
X224861988Y-128994910D01*
X224801746Y-128942205D01*
X224789482Y-128924152D01*
X224770475Y-128880932D01*
X224777274Y-128849381D01*
X224805558Y-128815597D01*
X224845761Y-128755994D01*
X224849306Y-128708372D01*
X224821661Y-128676775D01*
X224768297Y-128665247D01*
X224694683Y-128677831D01*
X224645675Y-128697384D01*
X224595715Y-128743116D01*
X224565777Y-128815518D01*
X224557143Y-128902702D01*
X224072197Y-128902702D01*
X224189157Y-128638988D01*
X224278013Y-128434749D01*
X224728953Y-128434749D01*
X224760427Y-128474283D01*
X224764813Y-128476785D01*
X224802379Y-128487780D01*
X224871554Y-128500242D01*
X224961201Y-128512361D01*
X225027387Y-128519410D01*
X225158252Y-128534198D01*
X225263560Y-128553326D01*
X225359014Y-128581363D01*
X225460314Y-128622876D01*
X225576971Y-128679312D01*
X225667847Y-128723334D01*
X225729732Y-128747595D01*
X225770799Y-128753697D01*
X225799223Y-128743242D01*
X225816528Y-128726266D01*
X225828314Y-128681895D01*
X225807495Y-128625929D01*
X225760167Y-128565211D01*
X225692428Y-128506583D01*
X225610374Y-128456884D01*
X225555976Y-128433905D01*
X225496356Y-128404237D01*
X225463423Y-128370223D01*
X225462881Y-128339248D01*
X225474505Y-128328401D01*
X225504284Y-128318618D01*
X225565802Y-128303760D01*
X225648589Y-128286247D01*
X225701204Y-128276018D01*
X225792822Y-128256240D01*
X225870327Y-128234870D01*
X225922637Y-128215190D01*
X225936606Y-128206324D01*
X225963668Y-128154447D01*
X225962689Y-128094818D01*
X225935313Y-128049219D01*
X225887900Y-128032763D01*
X225811207Y-128031177D01*
X225715672Y-128043199D01*
X225611731Y-128067568D01*
X225517983Y-128099674D01*
X225471427Y-128118479D01*
X225382100Y-128154559D01*
X225252395Y-128046180D01*
X225157765Y-127971766D01*
X225085935Y-127926879D01*
X225031509Y-127908752D01*
X224992760Y-127913106D01*
X224966251Y-127934733D01*
X224966036Y-127971883D01*
X224993660Y-128028021D01*
X225050668Y-128106612D01*
X225111987Y-128180454D01*
X225215278Y-128300655D01*
X225018187Y-128290839D01*
X224964961Y-128288708D01*
X224923340Y-128287041D01*
X224860878Y-128288063D01*
X224820442Y-128295427D01*
X224791677Y-128310655D01*
X224772869Y-128326875D01*
X224748994Y-128360422D01*
X224733266Y-128382522D01*
X224728953Y-128434749D01*
X224278013Y-128434749D01*
X224304933Y-128372872D01*
X224397536Y-128130558D01*
X224469774Y-127901745D01*
X224524452Y-127676133D01*
X224564375Y-127443423D01*
X224592351Y-127193314D01*
X224596471Y-127143925D01*
X224596590Y-127139746D01*
X225024726Y-127139746D01*
X225036090Y-127197249D01*
X225063866Y-127260874D01*
X225068006Y-127267840D01*
X225132250Y-127333790D01*
X225226846Y-127382333D01*
X225342878Y-127413254D01*
X225471427Y-127426335D01*
X225603575Y-127421359D01*
X225730402Y-127398109D01*
X225842992Y-127356369D01*
X225932425Y-127295922D01*
X225939562Y-127289029D01*
X225981332Y-127242332D01*
X226002595Y-127198680D01*
X226010061Y-127139958D01*
X226010717Y-127096866D01*
X226007188Y-127020217D01*
X225993237Y-126969760D01*
X225963820Y-126929157D01*
X225956674Y-126921815D01*
X225900475Y-126882533D01*
X225854860Y-126874561D01*
X225827888Y-126882188D01*
X225814633Y-126902376D01*
X225811619Y-126946002D01*
X225814082Y-127002242D01*
X225815611Y-127076009D01*
X225806944Y-127122468D01*
X225784245Y-127156707D01*
X225771631Y-127169198D01*
X225688435Y-127222345D01*
X225582381Y-127255864D01*
X225467583Y-127268309D01*
X225358157Y-127258229D01*
X225268217Y-127224177D01*
X225263712Y-127221316D01*
X225229000Y-127189180D01*
X225222726Y-127146666D01*
X225226872Y-127120585D01*
X225241180Y-127041406D01*
X225243773Y-126994616D01*
X225233186Y-126970978D01*
X225207953Y-126961253D01*
X225201421Y-126960222D01*
X225149462Y-126971701D01*
X225127628Y-126987506D01*
X225094862Y-127011225D01*
X225049664Y-127066562D01*
X225025905Y-127125479D01*
X225024726Y-127139746D01*
X224596590Y-127139746D01*
X224607155Y-126770229D01*
X224603216Y-126708939D01*
X224986831Y-126708939D01*
X224996890Y-126741781D01*
X225035457Y-126767367D01*
X225074116Y-126778941D01*
X225127628Y-126782292D01*
X225205495Y-126777391D01*
X225299557Y-126766504D01*
X225417552Y-126751590D01*
X225546043Y-126735755D01*
X225661599Y-126721877D01*
X225686805Y-126718925D01*
X225771269Y-126708068D01*
X225839300Y-126697397D01*
X225879679Y-126688741D01*
X225885075Y-126686607D01*
X225899994Y-126653837D01*
X225901296Y-126586479D01*
X225889278Y-126490496D01*
X225870729Y-126399072D01*
X225837512Y-126271846D01*
X225805640Y-126185730D01*
X225773987Y-126139037D01*
X225741429Y-126130079D01*
X225708243Y-126155454D01*
X225694099Y-126184552D01*
X225693079Y-126229770D01*
X225705064Y-126302989D01*
X225706676Y-126310871D01*
X225720826Y-126389005D01*
X225730044Y-126458369D01*
X225732067Y-126490146D01*
X225729945Y-126514806D01*
X225719501Y-126533065D01*
X225694617Y-126546504D01*
X225649178Y-126556709D01*
X225577066Y-126565263D01*
X225472166Y-126573748D01*
X225385616Y-126579832D01*
X225259324Y-126593827D01*
X225152297Y-126615878D01*
X225068537Y-126643843D01*
X225012047Y-126675578D01*
X224986831Y-126708939D01*
X224603216Y-126708939D01*
X224582105Y-126380428D01*
X224522447Y-125980305D01*
X224472037Y-125761288D01*
X224812590Y-125761288D01*
X224830476Y-125806129D01*
X224838063Y-125814338D01*
X224858331Y-125829997D01*
X224885364Y-125836472D01*
X224929099Y-125833607D01*
X224999471Y-125821246D01*
X225049981Y-125810994D01*
X225158183Y-125793390D01*
X225270903Y-125782697D01*
X225365511Y-125781041D01*
X225367679Y-125781145D01*
X225442482Y-125785705D01*
X225484157Y-125793116D01*
X225502395Y-125808323D01*
X225506886Y-125836266D01*
X225507004Y-125852201D01*
X225502840Y-125887421D01*
X225486434Y-125915918D01*
X225451914Y-125940733D01*
X225393409Y-125964903D01*
X225305045Y-125991466D01*
X225180953Y-126023461D01*
X225171490Y-126025806D01*
X225057859Y-126055245D01*
X224979919Y-126079587D01*
X224931300Y-126102039D01*
X224905637Y-126125808D01*
X224896560Y-126154099D01*
X224896118Y-126164472D01*
X224914654Y-126202285D01*
X224964961Y-126221319D01*
X225039093Y-126218921D01*
X225052001Y-126216503D01*
X225142013Y-126195425D01*
X225243239Y-126167848D01*
X225344547Y-126137255D01*
X225434803Y-126107133D01*
X225502875Y-126080965D01*
X225532693Y-126066020D01*
X225599172Y-126003338D01*
X225644520Y-125922656D01*
X225666237Y-125835214D01*
X225661827Y-125752250D01*
X225628789Y-125685002D01*
X225619536Y-125675364D01*
X225543152Y-125624062D01*
X225446004Y-125596908D01*
X225322786Y-125593177D01*
X225168191Y-125612142D01*
X225163564Y-125612956D01*
X225012927Y-125645084D01*
X224904057Y-125680616D01*
X224837197Y-125719400D01*
X224812590Y-125761288D01*
X224472037Y-125761288D01*
X224429308Y-125575643D01*
X224304780Y-125175329D01*
X224599099Y-125175329D01*
X224604275Y-125237072D01*
X224622147Y-125308919D01*
X224653874Y-125389000D01*
X224692531Y-125463166D01*
X224731195Y-125517271D01*
X224748994Y-125532775D01*
X224776790Y-125532163D01*
X224838106Y-125520920D01*
X224925405Y-125500738D01*
X225031148Y-125473308D01*
X225102317Y-125453503D01*
X225431794Y-125359494D01*
X225431888Y-125289598D01*
X225422593Y-125227289D01*
X225399065Y-125152351D01*
X225386690Y-125123346D01*
X225332281Y-125034133D01*
X225266191Y-124965869D01*
X225197291Y-124926522D01*
X225160287Y-124920085D01*
X225088573Y-124932924D01*
X225015134Y-124965554D01*
X224956649Y-125009139D01*
X224934255Y-125039802D01*
X224910768Y-125073615D01*
X224876083Y-125074148D01*
X224859844Y-125068560D01*
X224767728Y-125049503D01*
X224685854Y-125062439D01*
X224636341Y-125094124D01*
X224608104Y-125131056D01*
X224599099Y-125175329D01*
X224304780Y-125175329D01*
X224303814Y-125172223D01*
X224147094Y-124775828D01*
X224125660Y-124727716D01*
X224074049Y-124617016D01*
X224017700Y-124502060D01*
X223964816Y-124399336D01*
X223936346Y-124347218D01*
X223897862Y-124275455D01*
X223871398Y-124218514D01*
X223861233Y-124185901D01*
X223862095Y-124182181D01*
X223884060Y-124187703D01*
X223937685Y-124210497D01*
X224016800Y-124247665D01*
X224115235Y-124296312D01*
X224224002Y-124352072D01*
X224336272Y-124409984D01*
X224436001Y-124460301D01*
X224516777Y-124499879D01*
X224572189Y-124525574D01*
X224595539Y-124534262D01*
X224604028Y-124513117D01*
X224610523Y-124450752D01*
X224614937Y-124348776D01*
X224617184Y-124208795D01*
X224617468Y-124125219D01*
X224618530Y-123974239D01*
X224621622Y-123856238D01*
X224626602Y-123773929D01*
X224633328Y-123730024D01*
X224638452Y-123723320D01*
X224661644Y-123742817D01*
G37*
D19*
%TO.C,U1*%
X188205970Y-90625000D02*
X195559270Y-90625000D01*
X188205970Y-99625000D02*
X188205970Y-90625000D01*
X189630910Y-88225000D02*
X189630910Y-102025000D01*
X191630000Y-104025000D02*
X208630000Y-104025000D01*
X195559270Y-90625000D02*
X195559270Y-99625000D01*
X195559270Y-99625000D02*
X188205970Y-99625000D01*
X208630000Y-86225000D02*
X191630000Y-86225000D01*
X210630000Y-102025000D02*
X210630000Y-88225000D01*
D17*
X189630000Y-88225000D02*
G75*
G02*
X191630000Y-86225000I2044610J-44610D01*
G01*
X191630000Y-104025000D02*
G75*
G02*
X189630000Y-102025000I44612J2044612D01*
G01*
X208630000Y-86225000D02*
G75*
G02*
X210630000Y-88225000I0J-2000000D01*
G01*
X210630000Y-102025000D02*
G75*
G02*
X208630000Y-104025000I-2044857J44857D01*
G01*
D20*
X191457000Y-106125000D02*
G75*
G02*
X191203000Y-106125000I-127000J0D01*
G01*
X191203000Y-106125000D02*
G75*
G02*
X191457000Y-106125000I127000J0D01*
G01*
D21*
X191568295Y-104012715D02*
X191519527Y-104009667D01*
X191470506Y-104005603D01*
X191568295Y-104012715D01*
X208700850Y-86237287D02*
X208749618Y-86240335D01*
X208798639Y-86244399D01*
X208847407Y-86249732D01*
X208896175Y-86256336D01*
X208944690Y-86263956D01*
X208992950Y-86272847D01*
X209040955Y-86282752D01*
X208651574Y-86235508D01*
X208700850Y-86237287D01*
D17*
%TO.C,R3*%
X238290000Y-100490000D02*
X239060000Y-100490000D01*
X246370000Y-100490000D02*
X245600000Y-100490000D01*
X245600000Y-101860000D02*
X239060000Y-101860000D01*
X239060000Y-99120000D01*
X245600000Y-99120000D01*
X245600000Y-101860000D01*
%TO.C,R4*%
X236380000Y-116230000D02*
X236710000Y-116230000D01*
X236380000Y-122770000D02*
X236380000Y-116230000D01*
X236710000Y-122770000D02*
X236380000Y-122770000D01*
X238790000Y-122770000D02*
X239120000Y-122770000D01*
X239120000Y-116230000D02*
X238790000Y-116230000D01*
X239120000Y-122770000D02*
X239120000Y-116230000D01*
%TO.C,R2*%
X238290000Y-105490000D02*
X239060000Y-105490000D01*
X246370000Y-105490000D02*
X245600000Y-105490000D01*
X245600000Y-106860000D02*
X239060000Y-106860000D01*
X239060000Y-104120000D01*
X245600000Y-104120000D01*
X245600000Y-106860000D01*
%TO.C,R5*%
X236380000Y-127920000D02*
X236710000Y-127920000D01*
X236380000Y-134460000D02*
X236380000Y-127920000D01*
X236710000Y-134460000D02*
X236380000Y-134460000D01*
X238790000Y-134460000D02*
X239120000Y-134460000D01*
X239120000Y-127920000D02*
X238790000Y-127920000D01*
X239120000Y-134460000D02*
X239120000Y-127920000D01*
%TO.C,R1*%
X238290000Y-110490000D02*
X239060000Y-110490000D01*
X246370000Y-110490000D02*
X245600000Y-110490000D01*
X245600000Y-111860000D02*
X239060000Y-111860000D01*
X239060000Y-109120000D01*
X245600000Y-109120000D01*
X245600000Y-111860000D01*
%TO.C,Presets*%
X242500000Y-130250000D02*
X242500000Y-131750000D01*
X243750000Y-134250000D02*
X248250000Y-134250000D01*
X248250000Y-127750000D02*
X243750000Y-127750000D01*
X249500000Y-131750000D02*
X249500000Y-130250000D01*
%TO.C,D1*%
X228955000Y-107811500D02*
X229420000Y-107811500D01*
X231580000Y-107811500D02*
X232045000Y-107811500D01*
X228955170Y-107811500D02*
G75*
G02*
X229419173Y-102463685I1544830J2560000D01*
G01*
X229420000Y-107506184D02*
G75*
G02*
X229419571Y-102997021I1080000J2254684D01*
G01*
X231580429Y-102997021D02*
G75*
G02*
X231580000Y-107506184I-1080429J-2254479D01*
G01*
X231580827Y-102463685D02*
G75*
G02*
X232044830Y-107811500I-1080827J-2787815D01*
G01*
%TO.C,J2*%
X188370000Y-115750000D02*
X189750000Y-115750000D01*
X188370000Y-117130000D02*
X188370000Y-115750000D01*
X188370000Y-118400000D02*
X188370000Y-128670000D01*
X188370000Y-118400000D02*
X191130000Y-118400000D01*
X188370000Y-128670000D02*
X191130000Y-128670000D01*
X191130000Y-118400000D02*
X191130000Y-128670000D01*
%TO.C,J1*%
X213370000Y-93770000D02*
X213370000Y-86040000D01*
X216130000Y-86040000D02*
X213370000Y-86040000D01*
X216130000Y-93770000D02*
X213370000Y-93770000D01*
X216130000Y-93770000D02*
X216130000Y-86040000D01*
X216130000Y-95040000D02*
X216130000Y-96420000D01*
X216130000Y-96420000D02*
X214750000Y-96420000D01*
%TD*%
M02*
