M48
; DRILL file {KiCad 9.0.7} date 2026-05-24T22:14:27-0700
; FORMAT={-:-/ absolute / metric / decimal}
; #@! TF.CreationDate,2026-05-24T22:14:27-07:00
; #@! TF.GenerationSoftware,Kicad,Pcbnew,9.0.7
; #@! TF.FileFunction,Plated,1,2,PTH
FMAT,2
METRIC
; #@! TA.AperFunction,Plated,PTH,ViaDrill
T1C0.300
; #@! TA.AperFunction,Plated,PTH,ComponentDrill
T2C0.800
; #@! TA.AperFunction,Plated,PTH,ComponentDrill
T3C0.900
; #@! TA.AperFunction,Plated,PTH,ComponentDrill
T4C1.000
; #@! TA.AperFunction,Plated,PTH,ComponentDrill
T5C1.100
%
G90
G05
T1
X188.366Y-90.116
X188.433Y-90.933
X188.5Y-91.75
X188.542Y-92.592
X193.996Y-115.694
X195.565Y-116.315
X196.75Y-91.25
X198.25Y-92.25
X204.975Y-91.271
X205.5Y-91.875
X208.25Y-106.75
X208.25Y-107.75
X209.25Y-102.25
X210.0Y-102.75
X212.0Y-90.75
X212.566Y-91.316
X235.1Y-117.2
X244.75Y-100.5
X245.0Y-99.5
T2
X237.25Y-100.49
X237.25Y-105.49
X237.25Y-110.49
X237.75Y-115.69
X237.75Y-123.31
X237.75Y-127.38
X237.75Y-135.0
X247.41Y-100.49
X247.41Y-105.49
X247.41Y-110.49
T3
X230.5Y-102.013
X230.5Y-104.172
X230.5Y-106.331
X230.5Y-108.49
T4
X189.75Y-117.13
X189.75Y-119.67
X189.75Y-122.21
X189.75Y-124.75
X189.75Y-127.29
X192.51Y-87.5
X192.51Y-102.75
X195.05Y-87.5
X195.05Y-102.75
X197.59Y-87.5
X197.59Y-102.75
X200.13Y-87.5
X200.13Y-102.75
X202.67Y-87.5
X202.67Y-102.75
X205.21Y-87.5
X205.21Y-102.75
X207.75Y-87.5
X207.75Y-102.75
X214.75Y-87.42
X214.75Y-89.96
X214.75Y-92.5
X214.75Y-95.04
T5
X242.75Y-117.25
X242.75Y-121.75
X242.75Y-128.75
X242.75Y-133.25
X249.25Y-117.25
X249.25Y-121.75
X249.25Y-128.75
X249.25Y-133.25
M30
