%TF.GenerationSoftware,KiCad,Pcbnew,9.0.7*%
%TF.CreationDate,2026-05-24T22:13:27-07:00*%
%TF.ProjectId,rgb_led_controller,7267625f-6c65-4645-9f63-6f6e74726f6c,rev?*%
%TF.SameCoordinates,Original*%
%TF.FileFunction,Soldermask,Top*%
%TF.FilePolarity,Negative*%
%FSLAX46Y46*%
G04 Gerber Fmt 4.6, Leading zero omitted, Abs format (unit mm)*
G04 Created by KiCad (PCBNEW 9.0.7) date 2026-05-24 22:13:27*
%MOMM*%
%LPD*%
G01*
G04 APERTURE LIST*
%ADD10O,1.700000X3.700000*%
%ADD11O,1.700000X3.600000*%
%ADD12R,1.700000X3.500000*%
%ADD13C,2.000000*%
%ADD14C,1.600000*%
%ADD15R,1.800000X1.800000*%
%ADD16C,1.800000*%
%ADD17R,1.700000X1.700000*%
%ADD18C,1.700000*%
G04 APERTURE END LIST*
D10*
%TO.C,U1*%
X192510000Y-86500000D03*
X195050000Y-86500000D03*
X197590000Y-86500000D03*
X200130000Y-86500000D03*
D11*
X202670000Y-86500000D03*
X205210000Y-86500000D03*
X207750000Y-86500000D03*
X207750000Y-103750000D03*
X205210000Y-103750000D03*
X202670000Y-103750000D03*
X200130000Y-103750000D03*
X197590000Y-103750000D03*
X195050000Y-103750000D03*
D12*
X192510000Y-103750000D03*
%TD*%
D13*
%TO.C,Color Control*%
X242750000Y-117250000D03*
X249250000Y-117250000D03*
X242750000Y-121750000D03*
X249250000Y-121750000D03*
%TD*%
D14*
%TO.C,R3*%
X247410000Y-100490000D03*
X237250000Y-100490000D03*
%TD*%
%TO.C,R4*%
X237750000Y-123310000D03*
X237750000Y-115690000D03*
%TD*%
%TO.C,R2*%
X247410000Y-105490000D03*
X237250000Y-105490000D03*
%TD*%
%TO.C,R5*%
X237750000Y-135000000D03*
X237750000Y-127380000D03*
%TD*%
%TO.C,R1*%
X247410000Y-110490000D03*
X237250000Y-110490000D03*
%TD*%
D13*
%TO.C,Brightness*%
X242750000Y-128750000D03*
X249250000Y-128750000D03*
X242750000Y-133250000D03*
X249250000Y-133250000D03*
%TD*%
D15*
%TO.C,D1*%
X230500000Y-108490000D03*
D16*
X230500000Y-106331000D03*
X230500000Y-104172000D03*
X230500000Y-102013000D03*
%TD*%
D17*
%TO.C,J2*%
X189750000Y-117130000D03*
D18*
X189750000Y-119670000D03*
X189750000Y-122210000D03*
X189750000Y-124750000D03*
X189750000Y-127290000D03*
%TD*%
D17*
%TO.C,J1*%
X214750000Y-95040000D03*
D18*
X214750000Y-92500000D03*
X214750000Y-89960000D03*
X214750000Y-87420000D03*
%TD*%
M02*
