%TF.GenerationSoftware,KiCad,Pcbnew,9.0.7*%
%TF.CreationDate,2026-05-24T22:13:27-07:00*%
%TF.ProjectId,rgb_led_controller,7267625f-6c65-4645-9f63-6f6e74726f6c,rev?*%
%TF.SameCoordinates,Original*%
%TF.FileFunction,Copper,L2,Bot*%
%TF.FilePolarity,Positive*%
%FSLAX46Y46*%
G04 Gerber Fmt 4.6, Leading zero omitted, Abs format (unit mm)*
G04 Created by KiCad (PCBNEW 9.0.7) date 2026-05-24 22:13:27*
%MOMM*%
%LPD*%
G01*
G04 APERTURE LIST*
%TA.AperFunction,ComponentPad*%
%ADD10O,1.700000X3.700000*%
%TD*%
%TA.AperFunction,ComponentPad*%
%ADD11O,1.700000X3.600000*%
%TD*%
%TA.AperFunction,ComponentPad*%
%ADD12R,1.700000X3.500000*%
%TD*%
%TA.AperFunction,ComponentPad*%
%ADD13C,2.000000*%
%TD*%
%TA.AperFunction,ComponentPad*%
%ADD14C,1.600000*%
%TD*%
%TA.AperFunction,ComponentPad*%
%ADD15R,1.800000X1.800000*%
%TD*%
%TA.AperFunction,ComponentPad*%
%ADD16C,1.800000*%
%TD*%
%TA.AperFunction,ComponentPad*%
%ADD17R,1.700000X1.700000*%
%TD*%
%TA.AperFunction,ComponentPad*%
%ADD18C,1.700000*%
%TD*%
%TA.AperFunction,ViaPad*%
%ADD19C,0.600000*%
%TD*%
%TA.AperFunction,Conductor*%
%ADD20C,0.250000*%
%TD*%
G04 APERTURE END LIST*
D10*
%TO.P,U1,14,5V*%
%TO.N,unconnected-(U1-5V-Pad14)*%
X192510000Y-86500000D03*
%TO.P,U1,13,GND*%
%TO.N,GND*%
X195050000Y-86500000D03*
%TO.P,U1,12,3V3*%
%TO.N,+3V3*%
X197590000Y-86500000D03*
%TO.P,U1,11,PA6_A10_D10_MOSI*%
%TO.N,unconnected-(U1-PA6_A10_D10_MOSI-Pad11)*%
X200130000Y-86500000D03*
D11*
%TO.P,U1,10,PA5_A9_D9_MISO*%
%TO.N,/SW*%
X202670000Y-86500000D03*
%TO.P,U1,9,PA7_A8_D8_SCK*%
%TO.N,/JOY_Y*%
X205210000Y-86500000D03*
%TO.P,U1,8,PB09_A7_D7_RX*%
%TO.N,/JOY_X*%
X207750000Y-86500000D03*
%TO.P,U1,7,PB08_A6_D6_TX*%
%TO.N,Net-(U1-PB08_A6_D6_TX)*%
X207750000Y-103750000D03*
%TO.P,U1,6,PA9_A5_D5_SCL*%
%TO.N,/SCL*%
X205210000Y-103750000D03*
%TO.P,U1,5,PA8_A4_D4_SDA*%
%TO.N,/SDA*%
X202670000Y-103750000D03*
%TO.P,U1,4,PA11_A3_D3*%
%TO.N,Net-(U1-PA11_A3_D3)*%
X200130000Y-103750000D03*
%TO.P,U1,3,PA10_A2_D2*%
%TO.N,Net-(U1-PA10_A2_D2)*%
X197590000Y-103750000D03*
%TO.P,U1,2,PA4_A1_D1*%
%TO.N,Net-(U1-PA4_A1_D1)*%
X195050000Y-103750000D03*
D12*
%TO.P,U1,1,PA02_A0_D0*%
%TO.N,Net-(U1-PA02_A0_D0)*%
X192510000Y-103750000D03*
%TD*%
D13*
%TO.P,Color Control,1,1*%
%TO.N,Net-(U1-PA02_A0_D0)*%
X242750000Y-117250000D03*
X249250000Y-117250000D03*
%TO.P,Color Control,2,2*%
%TO.N,GND*%
X242750000Y-121750000D03*
X249250000Y-121750000D03*
%TD*%
D14*
%TO.P,R3,1*%
%TO.N,Net-(U1-PB08_A6_D6_TX)*%
X247410000Y-100490000D03*
%TO.P,R3,2*%
%TO.N,/LED_B*%
X237250000Y-100490000D03*
%TD*%
%TO.P,R4,1*%
%TO.N,+3V3*%
X237750000Y-123310000D03*
%TO.P,R4,2*%
%TO.N,Net-(U1-PA02_A0_D0)*%
X237750000Y-115690000D03*
%TD*%
%TO.P,R2,1*%
%TO.N,Net-(U1-PA11_A3_D3)*%
X247410000Y-105490000D03*
%TO.P,R2,2*%
%TO.N,/LED_G*%
X237250000Y-105490000D03*
%TD*%
%TO.P,R5,1*%
%TO.N,+3V3*%
X237750000Y-135000000D03*
%TO.P,R5,2*%
%TO.N,Net-(U1-PA4_A1_D1)*%
X237750000Y-127380000D03*
%TD*%
%TO.P,R1,1*%
%TO.N,Net-(U1-PA10_A2_D2)*%
X247410000Y-110490000D03*
%TO.P,R1,2*%
%TO.N,/LED_R*%
X237250000Y-110490000D03*
%TD*%
D13*
%TO.P,Brightness,1,1*%
%TO.N,Net-(U1-PA4_A1_D1)*%
X242750000Y-128750000D03*
X249250000Y-128750000D03*
%TO.P,Brightness,2,2*%
%TO.N,GND*%
X242750000Y-133250000D03*
X249250000Y-133250000D03*
%TD*%
D15*
%TO.P,D1,1,RK*%
%TO.N,/LED_R*%
X230500000Y-108490000D03*
D16*
%TO.P,D1,2,GK*%
%TO.N,/LED_G*%
X230500000Y-106331000D03*
%TO.P,D1,3,BK*%
%TO.N,/LED_B*%
X230500000Y-104172000D03*
%TO.P,D1,4,BA*%
%TO.N,GND*%
X230500000Y-102013000D03*
%TD*%
D17*
%TO.P,J2,1,Pin_1*%
%TO.N,GND*%
X189750000Y-117130000D03*
D18*
%TO.P,J2,2,Pin_2*%
%TO.N,+3V3*%
X189750000Y-119670000D03*
%TO.P,J2,3,Pin_3*%
%TO.N,/JOY_X*%
X189750000Y-122210000D03*
%TO.P,J2,4,Pin_4*%
%TO.N,/JOY_Y*%
X189750000Y-124750000D03*
%TO.P,J2,5,Pin_5*%
%TO.N,/SW*%
X189750000Y-127290000D03*
%TD*%
D17*
%TO.P,J1,1,Pin_1*%
%TO.N,GND*%
X214750000Y-95040000D03*
D18*
%TO.P,J1,2,Pin_2*%
%TO.N,+3V3*%
X214750000Y-92500000D03*
%TO.P,J1,3,Pin_3*%
%TO.N,/SCL*%
X214750000Y-89960000D03*
%TO.P,J1,4,Pin_4*%
%TO.N,/SDA*%
X214750000Y-87420000D03*
%TD*%
D19*
%TO.N,+3V3*%
X235100000Y-117200000D03*
%TO.N,Net-(U1-PA4_A1_D1)*%
X195565000Y-116315000D03*
%TO.N,Net-(U1-PA02_A0_D0)*%
X193995558Y-115694442D03*
%TO.N,Net-(U1-PA10_A2_D2)*%
X208250000Y-107750000D03*
X210000000Y-102750000D03*
X244750000Y-100500000D03*
%TO.N,Net-(U1-PA11_A3_D3)*%
X208250000Y-106750000D03*
X209250000Y-102250000D03*
X245000000Y-99500000D03*
%TO.N,/SDA*%
X204975191Y-91271197D03*
%TO.N,/SCL*%
X212565687Y-91315687D03*
X205500000Y-91875000D03*
%TO.N,/SDA*%
X212000000Y-90750000D03*
%TO.N,+3V3*%
X198250000Y-92250000D03*
X188541941Y-92591944D03*
X196750000Y-91250000D03*
%TO.N,/JOY_X*%
X188500000Y-91750000D03*
%TO.N,/JOY_Y*%
X188433057Y-90933057D03*
%TO.N,/SW*%
X188366115Y-90116116D03*
%TD*%
D20*
%TO.N,+3V3*%
X235100000Y-117200000D02*
X192220000Y-117200000D01*
X192220000Y-117200000D02*
X189750000Y-119670000D01*
X237750000Y-135250000D02*
X237800000Y-135300000D01*
X237750000Y-135000000D02*
X237750000Y-135250000D01*
%TO.N,Net-(U1-PA4_A1_D1)*%
X195565000Y-116315000D02*
X195630000Y-116250000D01*
X195630000Y-116250000D02*
X235750000Y-116250000D01*
X235750000Y-125380000D02*
X237750000Y-127380000D01*
X235750000Y-116250000D02*
X235750000Y-125380000D01*
%TO.N,Net-(U1-PA02_A0_D0)*%
X193995558Y-115694442D02*
X194000000Y-115690000D01*
X194000000Y-115690000D02*
X237750000Y-115690000D01*
X242750000Y-117250000D02*
X241190000Y-115690000D01*
X241190000Y-115690000D02*
X237750000Y-115690000D01*
X249250000Y-117250000D02*
X242750000Y-117250000D01*
%TO.N,Net-(U1-PA4_A1_D1)*%
X242750000Y-128750000D02*
X241380000Y-127380000D01*
X241380000Y-127380000D02*
X237750000Y-127380000D01*
X249250000Y-128750000D02*
X242750000Y-128750000D01*
%TO.N,/LED_B*%
X230500000Y-104172000D02*
X233568000Y-104172000D01*
X233568000Y-104172000D02*
X237250000Y-100490000D01*
%TO.N,/LED_G*%
X230500000Y-106331000D02*
X236409000Y-106331000D01*
X236409000Y-106331000D02*
X237250000Y-105490000D01*
%TO.N,/LED_R*%
X230500000Y-108490000D02*
X235250000Y-108490000D01*
X235250000Y-108490000D02*
X237250000Y-110490000D01*
%TO.N,Net-(U1-PB08_A6_D6_TX)*%
X247410000Y-100490000D02*
X247410000Y-100160000D01*
X245000000Y-97750000D02*
X212750000Y-97750000D01*
X247410000Y-100160000D02*
X245000000Y-97750000D01*
X212750000Y-97750000D02*
X207750000Y-102750000D01*
%TO.N,Net-(U1-PA11_A3_D3)*%
X245000000Y-99500000D02*
X244000000Y-98500000D01*
X244000000Y-98500000D02*
X213000000Y-98500000D01*
X213000000Y-98500000D02*
X209250000Y-102250000D01*
%TO.N,Net-(U1-PA10_A2_D2)*%
X200750000Y-107750000D02*
X197590000Y-104590000D01*
X197590000Y-104590000D02*
X197590000Y-102750000D01*
X208250000Y-107750000D02*
X200750000Y-107750000D01*
X213386000Y-99364000D02*
X210000000Y-102750000D01*
X244750000Y-100500000D02*
X243614000Y-99364000D01*
X243614000Y-99364000D02*
X213386000Y-99364000D01*
%TO.N,Net-(U1-PA11_A3_D3)*%
X208250000Y-106750000D02*
X201250000Y-106750000D01*
X201250000Y-106750000D02*
X200130000Y-105630000D01*
X200130000Y-105630000D02*
X200130000Y-102750000D01*
%TO.N,/SDA*%
X211500000Y-91250000D02*
X212000000Y-90750000D01*
X205080445Y-91392294D02*
X205222739Y-91250000D01*
X204862036Y-91392294D02*
X205080445Y-91392294D01*
%TO.N,/SCL*%
X212006374Y-91875000D02*
X212565687Y-91315687D01*
X205500000Y-91875000D02*
X212006374Y-91875000D01*
%TO.N,+3V3*%
X198250000Y-92250000D02*
X198500000Y-92500000D01*
X198500000Y-92500000D02*
X214750000Y-92500000D01*
X196750000Y-91250000D02*
X189883885Y-91250000D01*
X189883885Y-91250000D02*
X188541941Y-92591944D01*
%TO.N,/JOY_X*%
X204750000Y-90500000D02*
X207750000Y-87500000D01*
X188500000Y-91750000D02*
X189750000Y-90500000D01*
X189750000Y-90500000D02*
X204750000Y-90500000D01*
%TO.N,/JOY_Y*%
X202710000Y-90000000D02*
X205210000Y-87500000D01*
X188433057Y-90933057D02*
X189366115Y-90000000D01*
X189366115Y-90000000D02*
X202710000Y-90000000D01*
%TO.N,/SW*%
X200670000Y-89500000D02*
X202670000Y-87500000D01*
X188366115Y-90116116D02*
X188982231Y-89500000D01*
X188982231Y-89500000D02*
X200670000Y-89500000D01*
%TO.N,/SDA*%
X205222739Y-91250000D02*
X211500000Y-91250000D01*
%TD*%
M02*
