  0
SECTION
  2
HEADER
  9
$ANGBASE
  50
0.0
  9
$ANGDIR
  70
1
  9
$MEASUREMENT
  70
0
  0
ENDSEC
  0
SECTION
  2
TABLES
  0
TABLE
  2
LTYPE
  70
4
  0
LTYPE
  5
40F
  2
CONTINUOUS
  70
0
  3
Solid line
  72
65
  73
0
  40
0.0
  0
LTYPE
  5
410
  2
DASHDOT
 70
0
  3
Dash Dot ____ _ ____ _
 72
65
 73
4
 40
2.0
 49
1.25
 49
-0.25
 49
0.25
 49
-0.25
  0
LTYPE
  5
411
  2
DASHED
 70
0
  3
Dashed __ __ __ __ __
 72
65
 73
2
 40
0.75
 49
0.5
 49
-0.25
  0
LTYPE
  5
43B
  2
DOTTED
 70
0
  3
Dotted .  .  .  .
 72
65
 73
2
 40
0.2
 49
0.0
 49
-0.2
  0
ENDTAB
  0
TABLE
  2
STYLE
  70
4
  0
STYLE
  2
KICAD
  70
0
  40
0
  41
1
  42
1
  50
0
  71
0
  3
isocp.shx
  0
STYLE
  2
KICADB
  70
0
  40
0
  41
1
  42
1
  50
0
  71
0
  3
isocp.shx
  0
STYLE
  2
KICADI
  70
0
  40
0
  41
1
  42
1
  50
15
  71
0
  3
isocp.shx
  0
STYLE
  2
KICADBI
  70
0
  40
0
  41
1
  42
1
  50
15
  71
0
  3
isocp.shx
  0
ENDTAB
  0
TABLE
  2
LAYER
  70
1
  0
LAYER
  2
BLACK
  70
0
  62
7
  6
CONTINUOUS
  0
ENDTAB
  0
ENDSEC
  0
SECTION
  2
ENTITIES
0
LINE
8
BLACK
6
CONTINUOUS
10
9.974786102362204
20
-3.2294056299212599
11
9.9753187795275586
21
-3.2299383070866141
0
LINE
8
BLACK
6
CONTINUOUS
10
9.9753187795275586
20
-3.2299383070866141
11
9.9753937007874018
21
-3.2303149606299213
0
LINE
8
BLACK
6
CONTINUOUS
10
9.9753937007874018
20
-3.2303149606299213
11
9.9753937007874018
21
-5.4704724409448815
0
LINE
8
BLACK
6
CONTINUOUS
10
9.9753937007874018
20
-5.4704724409448815
11
9.9753187795275586
21
-5.4708490944881891
0
LINE
8
BLACK
6
CONTINUOUS
10
9.9753187795275586
20
-5.4708490944881891
11
9.974786102362204
21
-5.4713817716535429
0
LINE
8
BLACK
6
CONTINUOUS
10
9.974786102362204
20
-5.4713817716535429
11
9.9744094488188981
21
-5.4714566929133861
0
LINE
8
BLACK
6
CONTINUOUS
10
9.9744094488188981
20
-5.4714566929133861
11
7.2637795275590546
21
-5.4714566929133861
0
LINE
8
BLACK
6
CONTINUOUS
10
7.2637795275590546
20
-5.4714566929133861
11
7.2634028740157479
21
-5.4713817716535429
0
LINE
8
BLACK
6
CONTINUOUS
10
7.2634028740157479
20
-5.4713817716535429
11
7.2628701968503933
21
-5.4708490944881891
0
LINE
8
BLACK
6
CONTINUOUS
10
7.2628701968503933
20
-5.4708490944881891
11
7.2627952755905509
21
-5.4704724409448815
0
LINE
8
BLACK
6
CONTINUOUS
10
7.2627952755905509
20
-5.4704724409448815
11
7.2627952755905509
21
-3.2303149606299213
0
LINE
8
BLACK
6
CONTINUOUS
10
7.2627952755905509
20
-3.2303149606299213
11
7.2628701968503933
21
-3.2299383070866141
0
LINE
8
BLACK
6
CONTINUOUS
10
7.2628701968503933
20
-3.2299383070866141
11
7.2634028740157479
21
-3.2294056299212599
0
LINE
8
BLACK
6
CONTINUOUS
10
7.2634028740157479
20
-3.2294056299212599
11
7.2637795275590546
21
-3.2293307086614171
0
LINE
8
BLACK
6
CONTINUOUS
10
7.2637795275590546
20
-3.2293307086614171
11
9.9744094488188981
21
-3.2293307086614171
0
LINE
8
BLACK
6
CONTINUOUS
10
9.9744094488188981
20
-3.2293307086614171
11
9.974786102362204
21
-3.2294056299212599
0
LINE
8
BLACK
6
CONTINUOUS
10
7.2647637795275593
20
-3.231299212598425
11
7.2647637795275593
21
-5.4694881889763778
0
LINE
8
BLACK
6
CONTINUOUS
10
7.2647637795275593
20
-5.4694881889763778
11
9.9734251968503926
21
-5.4694881889763778
0
LINE
8
BLACK
6
CONTINUOUS
10
9.9734251968503926
20
-5.4694881889763778
11
9.9734251968503926
21
-3.231299212598425
0
LINE
8
BLACK
6
CONTINUOUS
10
9.9734251968503926
20
-3.231299212598425
11
7.2647637795275593
21
-3.231299212598425
  0
ENDSEC
  0
EOF
